<svg id="svg" version="1.1" xmlns="http://www.w3.org/2000/svg" xmlns:xlink="http://www.w3.org/1999/xlink" width="400" height="400" viewBox="0, 0, 400,400"><g id="svgg"><path id="path0" d="M0.000 4.800 C 0.000 6.509,0.501 6.802,2.026 5.986 C 3.548 5.172,2.557 3.200,0.626 3.200 C 0.162 3.200,0.000 3.615,0.000 4.800 M211.755 4.172 C 211.357 5.210,211.915 6.068,212.898 5.928 C 213.559 5.834,213.800 5.533,213.800 4.800 C 213.800 3.619,212.161 3.116,211.755 4.172 M371.755 7.372 C 371.357 8.410,371.915 9.268,372.898 9.128 C 373.559 9.034,373.800 8.733,373.800 8.000 C 373.800 6.819,372.161 6.316,371.755 7.372 M13.355 16.972 C 12.957 18.010,13.515 18.868,14.498 18.728 C 15.780 18.546,15.780 16.654,14.498 16.472 C 13.957 16.395,13.500 16.595,13.355 16.972 M64.555 20.172 C 64.157 21.210,64.715 22.068,65.698 21.928 C 66.359 21.834,66.600 21.533,66.600 20.800 C 66.600 19.619,64.961 19.116,64.555 20.172 M10.155 26.572 C 9.757 27.610,10.315 28.468,11.298 28.328 C 11.959 28.234,12.200 27.933,12.200 27.200 C 12.200 26.019,10.561 25.516,10.155 26.572 M26.155 32.972 C 25.757 34.010,26.315 34.868,27.298 34.728 C 27.959 34.634,28.200 34.333,28.200 33.600 C 28.200 32.419,26.561 31.916,26.155 32.972 M176.684 35.850 C 175.997 36.537,176.461 37.200,177.629 37.200 C 178.584 37.200,178.829 37.044,178.725 36.500 C 178.589 35.784,177.194 35.340,176.684 35.850 M95.397 37.205 C 95.288 37.381,94.858 37.436,94.440 37.326 C 93.352 37.042,92.050 37.861,91.761 39.012 C 91.494 40.077,91.470 40.082,86.900 40.049 C 85.525 40.040,84.400 40.167,84.400 40.332 C 84.400 40.497,83.905 40.624,83.300 40.616 C 82.359 40.602,82.202 40.759,82.216 41.700 C 82.234 42.974,81.848 43.154,78.808 43.287 C 76.329 43.394,74.991 44.312,75.406 45.620 C 75.672 46.458,75.436 46.511,71.709 46.462 C 69.798 46.437,68.626 47.292,68.938 48.484 C 69.193 49.461,68.258 49.771,64.487 49.955 C 63.984 49.980,62.971 50.602,62.234 51.339 C 61.498 52.075,60.593 52.794,60.222 52.936 C 59.852 53.078,59.661 53.376,59.798 53.597 C 59.935 53.819,59.836 54.000,59.577 54.000 C 59.291 54.000,59.182 54.392,59.298 55.000 C 59.490 56.005,59.186 56.186,57.561 56.031 C 56.771 55.956,55.860 56.993,56.108 57.687 C 56.445 58.628,55.681 59.505,54.690 59.315 C 53.531 59.094,52.624 60.085,52.927 61.242 C 53.087 61.854,52.934 62.144,52.374 62.291 C 51.948 62.402,51.600 62.632,51.600 62.802 C 51.600 62.972,51.285 63.086,50.900 63.056 C 50.461 63.021,50.221 63.261,50.256 63.700 C 50.286 64.085,50.151 64.400,49.956 64.400 C 49.760 64.400,49.600 65.390,49.600 66.600 C 49.600 68.784,49.363 69.092,47.879 68.840 C 47.461 68.769,46.369 69.861,46.440 70.279 C 46.676 71.667,46.333 72.400,45.449 72.400 C 44.033 72.400,43.611 73.197,43.356 76.349 C 43.150 78.904,43.200 79.200,43.839 79.200 C 44.496 79.200,44.491 79.247,43.776 79.792 C 42.960 80.415,43.670 81.451,44.543 80.912 C 44.752 80.782,44.797 80.882,44.642 81.133 C 44.441 81.457,44.626 81.493,45.280 81.256 C 46.000 80.995,46.324 80.387,46.772 78.454 C 47.288 76.223,47.461 75.955,48.571 75.668 C 49.735 75.366,49.820 75.206,50.199 72.598 C 50.585 69.950,50.649 69.835,51.900 69.512 C 52.615 69.328,53.214 69.047,53.231 68.889 C 53.429 67.019,54.078 66.102,55.329 65.924 C 55.876 65.846,56.247 65.468,56.327 64.908 C 56.467 63.918,58.288 62.283,58.857 62.635 C 59.057 62.759,59.420 62.288,59.664 61.588 C 59.940 60.797,60.547 60.131,61.270 59.827 C 61.910 59.558,62.741 58.722,63.117 57.969 C 63.593 57.014,64.117 56.563,64.848 56.478 C 65.633 56.387,65.987 56.042,66.256 55.105 C 66.510 54.218,66.941 53.766,67.733 53.555 C 69.207 53.160,70.000 52.469,70.000 51.578 C 70.000 50.734,70.599 50.500,73.600 50.169 C 76.037 49.900,76.800 49.469,76.800 48.359 C 76.800 47.502,78.278 47.086,82.239 46.829 C 82.859 46.788,84.432 45.365,84.158 45.092 C 83.674 44.607,85.539 44.072,88.600 43.818 C 93.344 43.424,93.997 43.257,93.709 42.508 C 93.540 42.068,93.618 41.964,93.959 42.175 C 94.291 42.380,94.412 42.251,94.327 41.781 C 94.154 40.828,94.884 40.771,114.900 40.172 C 119.934 40.021,123.600 39.752,123.600 39.532 C 123.600 39.323,123.781 39.265,124.003 39.402 C 124.224 39.539,124.513 39.370,124.645 39.028 C 124.776 38.685,125.054 38.510,125.261 38.638 C 125.483 38.775,125.424 39.136,125.119 39.512 C 124.680 40.055,124.692 40.097,125.200 39.783 C 125.827 39.396,125.955 39.357,127.100 39.210 C 127.603 39.146,127.519 39.036,126.800 38.823 C 125.888 38.551,125.958 38.487,127.600 38.091 C 129.359 37.667,129.328 37.657,126.200 37.671 C 124.440 37.678,122.699 37.562,122.331 37.411 C 121.963 37.261,121.261 37.353,120.771 37.616 C 120.005 38.025,119.914 38.002,120.125 37.451 C 120.394 36.749,95.830 36.504,95.397 37.205 M251.500 37.089 C 252.215 37.178,253.385 37.178,254.100 37.089 C 254.815 37.001,254.230 36.928,252.800 36.928 C 251.370 36.928,250.785 37.001,251.500 37.089 M257.365 37.144 C 257.588 37.505,267.153 37.381,267.521 37.012 C 267.638 36.896,265.353 36.800,262.443 36.800 C 259.533 36.800,257.248 36.955,257.365 37.144 M277.073 37.641 C 276.953 38.103,276.665 38.364,276.435 38.222 C 276.205 38.079,275.650 38.159,275.203 38.398 C 274.647 38.696,274.170 38.706,273.695 38.429 C 273.123 38.096,273.230 38.022,274.300 38.012 C 275.015 38.005,275.600 37.865,275.600 37.700 C 275.600 37.287,273.525 37.333,272.849 37.761 C 272.143 38.208,273.188 38.857,274.940 39.061 C 275.596 39.137,276.225 39.292,276.338 39.405 C 276.624 39.690,273.576 39.374,272.600 39.017 C 272.027 38.808,271.955 38.835,272.345 39.114 C 272.806 39.443,272.806 39.533,272.345 39.697 C 271.532 39.987,280.357 40.200,293.157 40.200 C 303.538 40.200,304.551 40.140,304.955 39.500 C 305.634 38.422,304.767 37.387,303.245 37.459 C 302.560 37.491,302.000 37.382,302.000 37.215 C 302.000 36.357,277.299 36.779,277.073 37.641 M175.300 37.891 C 176.125 37.978,177.475 37.978,178.300 37.891 C 179.125 37.805,178.450 37.734,176.800 37.734 C 175.150 37.734,174.475 37.805,175.300 37.891 M188.200 37.992 C 187.760 38.185,186.558 38.356,185.529 38.372 C 183.926 38.396,182.400 39.106,182.400 39.829 C 182.400 39.923,183.705 39.969,185.300 39.931 L 188.200 39.862 185.600 39.600 L 183.000 39.338 185.467 39.269 C 188.192 39.193,189.310 38.902,188.974 38.358 C 188.846 38.150,194.140 38.000,201.600 38.000 C 209.060 38.000,214.354 38.150,214.226 38.358 C 213.890 38.902,215.008 39.193,217.733 39.269 L 220.200 39.338 217.600 39.600 L 215.000 39.862 217.887 39.931 C 220.315 39.989,220.738 39.904,220.543 39.397 C 220.085 38.201,217.000 37.932,202.000 37.776 C 194.850 37.701,188.640 37.798,188.200 37.992 M244.507 37.840 C 244.639 37.972,245.401 38.080,246.200 38.080 C 246.999 38.080,247.761 37.972,247.893 37.840 C 248.025 37.708,247.263 37.600,246.200 37.600 C 245.137 37.600,244.375 37.708,244.507 37.840 M267.682 37.948 C 267.384 38.133,268.007 38.252,269.154 38.230 C 270.247 38.209,271.236 38.097,271.352 37.982 C 271.699 37.634,268.240 37.603,267.682 37.948 M257.600 38.438 C 257.600 38.637,258.440 38.800,259.467 38.800 C 260.493 38.800,261.258 38.735,261.167 38.655 C 260.764 38.305,257.600 38.112,257.600 38.438 M157.353 39.100 C 156.561 39.888,158.118 40.184,161.675 39.923 C 164.221 39.736,162.751 38.400,160.000 38.400 C 158.685 38.400,157.830 38.626,157.353 39.100 M176.105 38.687 C 176.714 38.779,177.614 38.777,178.105 38.682 C 178.597 38.587,178.100 38.511,177.000 38.514 C 175.900 38.517,175.497 38.595,176.105 38.687 M237.429 39.029 C 236.489 39.968,236.576 40.006,239.500 39.933 L 242.200 39.866 239.800 39.600 L 237.400 39.334 239.724 39.267 C 241.156 39.226,241.952 39.047,241.800 38.800 C 241.401 38.154,238.132 38.325,237.429 39.029 M161.300 39.489 C 160.585 39.578,159.415 39.578,158.700 39.489 C 157.985 39.401,158.570 39.328,160.000 39.328 C 161.430 39.328,162.015 39.401,161.300 39.489 M307.296 40.485 C 305.529 42.621,307.237 43.745,312.299 43.778 C 314.113 43.790,315.598 43.946,315.599 44.124 C 315.600 44.302,315.782 44.335,316.005 44.197 C 316.230 44.058,316.519 44.494,316.656 45.179 C 316.925 46.523,317.204 46.644,320.800 46.984 C 322.948 47.186,324.000 47.866,324.000 49.049 C 324.000 49.617,324.642 49.848,327.234 50.213 C 329.425 50.521,329.673 50.674,330.300 52.100 C 330.763 53.155,331.202 53.321,333.600 53.350 C 334.015 53.355,334.200 53.779,334.200 54.722 C 334.200 55.923,334.366 56.142,335.577 56.544 C 336.627 56.892,337.032 57.303,337.282 58.274 C 337.536 59.264,337.853 59.576,338.705 59.674 C 339.493 59.765,339.958 60.160,340.365 61.084 C 340.709 61.864,341.381 62.524,342.081 62.768 C 342.818 63.025,343.383 63.606,343.655 64.387 C 343.938 65.196,344.436 65.692,345.140 65.864 C 346.428 66.179,346.786 66.662,346.794 68.095 C 346.799 68.957,347.086 69.309,348.148 69.753 C 349.385 70.269,350.431 72.818,350.081 74.462 C 349.987 74.905,351.092 75.642,351.947 75.706 C 352.572 75.753,352.815 76.138,353.005 77.384 C 353.668 81.711,353.595 81.547,354.838 81.511 C 355.687 81.487,355.891 81.351,355.602 81.002 C 355.086 80.380,355.585 79.889,356.208 80.406 C 356.574 80.710,356.693 80.233,356.706 78.420 C 356.725 75.738,356.304 75.134,354.560 75.337 L 353.400 75.472 353.475 72.739 C 353.561 69.604,353.001 68.657,351.230 68.936 C 350.205 69.098,350.152 69.026,350.175 67.493 C 350.194 66.289,350.033 65.854,349.541 65.781 C 348.326 65.600,347.200 64.071,347.200 62.600 C 347.200 61.830,347.040 61.200,346.844 61.200 C 346.649 61.200,346.514 60.885,346.544 60.500 C 346.579 60.061,346.339 59.821,345.900 59.856 C 345.515 59.886,345.200 59.751,345.200 59.556 C 345.200 59.360,344.930 59.200,344.600 59.200 C 344.267 59.200,344.000 58.844,344.000 58.400 C 344.000 57.960,343.826 57.600,343.613 57.600 C 343.399 57.600,343.341 57.299,343.482 56.931 C 343.677 56.423,343.577 56.323,343.069 56.518 C 342.701 56.659,342.400 56.623,342.400 56.437 C 342.400 56.252,341.897 55.999,341.282 55.876 C 340.370 55.694,340.168 55.446,340.182 54.526 C 340.198 53.556,340.047 53.402,339.100 53.416 C 338.495 53.424,338.000 53.319,338.000 53.181 C 338.000 53.044,337.250 52.902,336.334 52.866 C 334.335 52.788,334.428 52.865,334.289 51.167 C 334.219 50.313,333.957 49.780,333.589 49.746 C 333.265 49.717,332.615 49.672,332.145 49.646 C 331.501 49.611,331.225 49.260,331.032 48.229 C 330.788 46.931,329.567 46.166,328.157 46.428 C 326.040 46.822,324.882 46.362,324.632 45.029 C 324.350 43.528,323.661 43.225,320.600 43.255 C 318.146 43.280,318.000 43.243,318.000 42.600 C 318.000 42.270,317.640 41.640,317.200 41.200 C 316.316 40.316,314.999 40.095,315.406 40.900 C 315.545 41.175,315.419 41.109,315.124 40.753 C 314.425 39.907,307.958 39.686,307.296 40.485 M42.048 81.624 C 40.223 82.024,40.050 82.433,40.073 86.298 C 40.090 89.156,40.186 89.619,40.746 89.527 C 41.106 89.468,41.589 89.539,41.819 89.684 C 42.786 90.292,43.331 89.200,43.588 86.138 C 43.734 84.412,43.698 82.937,43.510 82.861 C 43.321 82.785,43.363 82.486,43.603 82.197 C 44.202 81.475,43.654 81.273,42.048 81.624 M356.602 81.603 C 356.714 81.784,356.579 82.023,356.302 82.134 C 356.026 82.246,355.980 82.351,356.200 82.367 C 356.438 82.386,356.555 83.573,356.490 85.299 C 356.429 86.895,356.521 88.411,356.694 88.668 C 357.096 89.268,359.426 89.889,359.062 89.300 C 358.920 89.071,359.064 88.784,359.380 88.663 C 359.989 88.429,360.188 83.600,359.588 83.600 C 359.423 83.600,359.314 83.285,359.344 82.900 C 359.379 82.461,359.139 82.221,358.700 82.256 C 358.315 82.286,358.000 82.172,358.000 82.002 C 358.000 81.832,357.640 81.599,357.199 81.484 C 356.759 81.369,356.490 81.422,356.602 81.603 M3.755 90.572 C 3.357 91.610,3.915 92.468,4.898 92.328 C 5.559 92.234,5.800 91.933,5.800 91.200 C 5.800 90.019,4.161 89.516,3.755 90.572 M38.905 91.646 C 37.573 92.031,36.870 93.362,37.344 94.599 C 37.471 94.930,37.422 95.200,37.234 95.200 C 37.047 95.200,36.884 96.900,36.873 98.977 C 36.854 102.349,36.924 102.730,37.526 102.524 C 38.066 102.338,38.049 102.410,37.441 102.884 C 36.873 103.327,36.751 103.749,36.955 104.564 L 37.229 105.653 38.001 104.727 C 38.426 104.217,38.779 103.989,38.787 104.220 C 38.794 104.451,38.604 104.836,38.365 105.075 C 38.052 105.388,38.069 105.596,38.427 105.817 C 38.768 106.028,38.822 105.960,38.599 105.599 C 38.361 105.214,38.487 105.130,39.071 105.282 C 39.509 105.397,39.891 105.290,39.920 105.045 C 40.001 104.376,40.322 91.194,40.257 91.236 C 40.226 91.256,39.617 91.440,38.905 91.646 M397.900 93.232 C 396.461 94.070,397.488 96.000,399.374 96.000 C 399.838 96.000,400.000 95.585,400.000 94.400 C 400.000 92.698,399.395 92.362,397.900 93.232 M359.905 95.900 C 359.805 96.725,359.770 98.750,359.826 100.400 C 359.883 102.050,359.969 104.542,360.017 105.939 C 360.065 107.335,360.229 108.277,360.381 108.031 C 361.071 106.915,362.595 107.763,362.840 109.400 C 363.075 110.964,363.081 110.953,363.140 108.900 C 363.187 107.260,363.067 106.800,362.591 106.800 C 362.056 106.800,362.051 106.691,362.555 105.900 C 363.173 104.931,363.392 96.400,362.799 96.400 C 362.628 96.400,362.514 96.085,362.544 95.700 C 362.579 95.261,362.339 95.021,361.900 95.056 C 361.515 95.086,361.200 94.951,361.200 94.756 C 361.200 93.606,360.062 94.612,359.905 95.900 M36.956 107.371 C 36.835 107.685,36.816 108.360,36.914 108.871 C 37.052 109.597,37.103 109.523,37.146 108.533 C 37.175 107.837,37.425 107.176,37.700 107.065 C 38.092 106.907,38.089 106.856,37.687 106.832 C 37.406 106.814,37.076 107.057,36.956 107.371 M362.752 114.887 C 362.937 115.998,362.993 116.055,363.119 115.254 C 363.201 114.733,363.103 114.143,362.901 113.941 C 362.679 113.719,362.621 114.093,362.752 114.887 M35.745 129.000 C 35.459 129.746,35.835 130.800,36.387 130.800 C 36.614 130.800,36.800 130.260,36.800 129.600 C 36.800 128.344,36.140 127.969,35.745 129.000 M363.193 134.686 C 363.095 150.058,363.264 278.997,363.383 279.116 C 364.265 279.998,365.535 277.058,365.783 273.560 C 366.312 266.113,365.850 136.287,365.291 135.309 C 364.384 133.722,363.201 133.371,363.193 134.686 M397.900 138.032 C 396.461 138.870,397.488 140.800,399.374 140.800 C 399.838 140.800,400.000 140.385,400.000 139.200 C 400.000 137.498,399.395 137.162,397.900 138.032 M106.547 139.621 C 101.784 140.242,97.665 143.093,95.619 147.183 C 92.905 152.608,92.812 153.898,93.431 177.600 C 93.722 188.710,93.989 200.590,94.026 204.000 C 94.062 207.410,94.349 212.090,94.662 214.400 C 96.828 230.380,97.280 233.076,98.013 234.400 C 98.440 235.170,99.364 236.970,100.066 238.400 C 104.224 246.864,116.611 254.133,128.727 255.219 C 133.805 255.673,222.076 255.662,228.747 255.205 C 240.257 254.418,240.777 253.236,241.604 226.034 C 241.969 214.034,242.601 203.445,242.990 202.816 C 243.069 202.688,243.245 200.967,243.381 198.992 C 243.517 197.016,243.801 192.970,244.013 190.000 C 246.198 159.358,237.200 144.811,212.964 139.805 C 209.716 139.134,111.581 138.965,106.547 139.621 M365.082 143.300 C 364.987 143.795,364.909 143.390,364.909 142.400 C 364.909 141.410,364.987 141.005,365.082 141.500 C 365.178 141.995,365.178 142.805,365.082 143.300 M35.614 141.974 C 34.549 143.965,35.238 156.400,36.414 156.400 C 36.648 156.400,36.800 153.415,36.800 148.800 C 36.800 141.418,36.582 140.165,35.614 141.974 M295.894 143.212 C 292.837 143.979,290.878 145.455,283.498 152.548 C 279.348 156.537,273.407 162.050,270.296 164.800 C 258.290 175.413,258.073 176.141,258.913 203.000 C 259.345 216.817,259.739 218.394,264.352 224.744 C 269.139 231.334,288.747 248.912,294.697 251.947 C 302.643 256.001,304.851 251.755,305.383 231.400 C 305.510 226.560,305.709 219.900,305.826 216.600 C 305.942 213.300,306.199 204.840,306.397 197.800 C 306.595 190.760,306.975 177.800,307.242 169.000 C 307.862 148.541,307.490 145.984,303.599 144.000 C 301.740 143.051,298.039 142.673,295.894 143.212 M365.493 150.500 C 365.409 151.435,365.340 150.670,365.340 148.800 C 365.340 146.930,365.409 146.165,365.493 147.100 C 365.577 148.035,365.577 149.565,365.493 150.500 M35.614 161.174 C 34.658 162.961,35.279 169.200,36.414 169.200 C 36.639 169.200,36.800 167.360,36.800 164.800 C 36.800 160.491,36.489 159.539,35.614 161.174 M16.555 205.772 C 16.157 206.810,16.715 207.668,17.698 207.528 C 18.359 207.434,18.600 207.133,18.600 206.400 C 18.600 205.219,16.961 204.716,16.555 205.772 M378.155 212.172 C 377.757 213.210,378.315 214.068,379.298 213.928 C 379.959 213.834,380.200 213.533,380.200 212.800 C 380.200 211.619,378.561 211.116,378.155 212.172 M387.755 224.972 C 387.357 226.010,387.915 226.868,388.898 226.728 C 389.559 226.634,389.800 226.333,389.800 225.600 C 389.800 224.419,388.161 223.916,387.755 224.972 M365.496 236.100 C 365.418 237.475,365.354 236.350,365.354 233.600 C 365.354 230.850,365.418 229.725,365.496 231.100 C 365.574 232.475,365.574 234.725,365.496 236.100 M365.498 263.300 C 365.427 265.555,365.369 263.710,365.369 259.200 C 365.369 254.690,365.427 252.845,365.498 255.100 C 365.570 257.355,365.570 261.045,365.498 263.300 M365.082 271.300 C 364.987 271.795,364.909 271.390,364.909 270.400 C 364.909 269.410,364.987 269.005,365.082 269.500 C 365.178 269.995,365.178 270.805,365.082 271.300 M397.900 275.632 C 396.461 276.470,397.488 278.400,399.374 278.400 C 399.838 278.400,400.000 277.985,400.000 276.800 C 400.000 275.098,399.395 274.762,397.900 275.632 M36.800 299.933 C 36.800 300.885,36.974 301.192,37.500 301.168 C 37.918 301.150,37.999 301.056,37.700 300.935 C 37.425 300.824,37.200 300.558,37.200 300.343 C 37.200 300.128,37.425 300.088,37.700 300.253 C 38.013 300.441,37.980 300.263,37.613 299.777 C 37.290 299.350,36.975 298.925,36.913 298.833 C 36.851 298.742,36.800 299.237,36.800 299.933 M360.255 300.201 C 359.711 301.619,360.038 308.400,360.651 308.400 C 361.485 308.400,362.793 306.914,362.852 305.900 C 363.155 300.706,363.123 300.056,362.550 299.836 C 362.215 299.707,362.065 299.782,362.205 300.008 C 362.340 300.227,362.181 300.676,361.851 301.006 C 361.479 301.378,361.156 301.453,361.002 301.203 C 360.865 300.981,360.943 300.800,361.176 300.800 C 361.409 300.800,361.600 300.609,361.600 300.376 C 361.600 300.143,361.435 300.055,361.234 300.179 C 361.033 300.303,360.796 300.188,360.708 299.923 C 360.612 299.637,360.428 299.751,360.255 300.201 M39.569 301.193 C 39.431 301.547,38.908 301.750,38.269 301.697 C 37.103 301.601,36.924 301.942,37.700 302.779 C 38.108 303.219,38.071 303.272,37.500 303.071 C 36.901 302.861,36.800 303.083,36.800 304.613 C 36.800 305.596,36.949 306.400,37.132 306.400 C 37.314 306.400,37.449 306.805,37.432 307.300 C 37.409 307.944,37.628 308.200,38.200 308.200 C 38.640 308.200,39.125 308.375,39.278 308.588 C 39.863 309.405,40.026 308.370,39.915 304.552 C 39.852 302.378,39.696 300.867,39.569 301.193 M22.955 304.972 C 22.557 306.010,23.115 306.868,24.098 306.728 C 24.759 306.634,25.000 306.333,25.000 305.600 C 25.000 304.419,23.361 303.916,22.955 304.972 M394.155 311.372 C 393.757 312.410,394.315 313.268,395.298 313.128 C 395.959 313.034,396.200 312.733,396.200 312.000 C 396.200 310.819,394.561 310.316,394.155 311.372 M40.000 313.960 C 40.000 314.231,40.186 314.801,40.414 315.226 C 40.700 315.760,40.700 316.000,40.414 316.000 C 40.186 316.000,40.000 316.360,40.000 316.800 C 40.000 317.240,40.155 317.600,40.345 317.600 C 40.534 317.600,40.606 318.032,40.505 318.561 C 40.278 319.750,41.622 321.213,42.900 321.168 C 43.395 321.151,43.620 321.061,43.400 320.969 C 43.170 320.873,43.058 319.666,43.138 318.123 C 43.251 315.911,43.151 315.353,42.561 314.922 C 41.683 314.280,41.055 314.241,41.432 314.852 C 41.602 315.126,41.493 315.231,41.156 315.119 C 40.850 315.017,40.600 314.738,40.600 314.500 C 40.600 314.262,40.465 313.932,40.300 313.767 C 40.135 313.602,40.000 313.689,40.000 313.960 M358.988 314.419 C 358.846 314.650,358.340 314.785,357.865 314.719 C 357.108 314.615,356.984 314.817,356.875 316.339 C 356.792 317.491,356.894 317.989,357.175 317.815 C 357.409 317.671,357.600 317.743,357.600 317.976 C 357.600 318.644,358.327 318.473,359.200 317.600 C 360.068 316.732,360.245 316.000,359.586 316.000 C 359.300 316.000,359.300 315.760,359.586 315.226 C 360.217 314.047,359.673 313.311,358.988 314.419 M44.242 322.068 C 44.436 322.383,44.313 322.452,43.866 322.281 C 43.424 322.111,43.200 322.231,43.200 322.636 C 43.200 322.972,43.365 323.145,43.566 323.021 C 43.768 322.896,43.725 323.344,43.472 324.015 C 43.123 324.940,43.124 325.306,43.477 325.524 C 43.733 325.682,43.910 326.169,43.871 326.606 C 43.820 327.175,44.025 327.380,44.594 327.329 C 45.031 327.290,45.506 327.448,45.649 327.680 C 46.140 328.473,46.600 327.679,46.543 326.138 C 46.512 325.292,46.467 323.891,46.443 323.024 C 46.404 321.604,46.347 321.520,45.864 322.180 C 45.380 322.842,45.304 322.849,45.077 322.256 C 44.938 321.895,44.629 321.600,44.389 321.600 C 44.149 321.600,44.083 321.811,44.242 322.068 M355.326 322.151 C 355.442 322.454,355.350 322.890,355.120 323.120 C 354.890 323.350,354.454 323.442,354.151 323.326 C 353.848 323.210,353.600 323.314,353.600 323.557 C 353.600 323.801,353.825 324.003,354.100 324.006 C 354.455 324.010,354.438 324.115,354.039 324.368 C 353.644 324.618,353.822 324.705,354.639 324.664 C 355.277 324.631,355.981 324.424,356.202 324.202 C 356.424 323.981,356.631 323.277,356.664 322.639 C 356.705 321.822,356.618 321.644,356.368 322.039 C 356.115 322.438,356.010 322.455,356.006 322.100 C 356.003 321.825,355.801 321.600,355.557 321.600 C 355.314 321.600,355.210 321.848,355.326 322.151 M355.974 323.831 C 355.718 324.139,355.341 324.287,355.135 324.160 C 354.914 324.023,354.951 323.700,355.226 323.369 C 355.482 323.061,355.859 322.913,356.065 323.040 C 356.286 323.177,356.249 323.500,355.974 323.831 M46.786 328.009 C 46.489 328.192,46.398 328.618,46.563 329.048 C 46.781 329.617,46.915 329.661,47.172 329.246 C 47.393 328.888,47.500 329.069,47.500 329.800 C 47.500 330.530,47.393 330.712,47.172 330.354 C 46.521 329.302,46.367 330.346,46.962 331.770 C 47.325 332.639,48.020 333.422,48.685 333.713 C 49.509 334.073,49.767 334.435,49.672 335.100 C 49.602 335.595,49.731 336.000,49.960 336.000 C 50.188 336.000,50.259 336.301,50.118 336.669 C 49.923 337.177,50.023 337.277,50.531 337.082 C 50.899 336.941,51.200 337.012,51.200 337.240 C 51.200 338.017,52.925 337.418,53.045 336.600 C 53.305 334.824,52.789 334.049,51.262 333.922 C 50.458 333.855,49.778 333.575,49.750 333.300 C 49.723 333.025,49.672 331.675,49.637 330.300 C 49.578 327.936,49.540 327.844,48.933 328.600 C 48.469 329.179,48.355 329.218,48.519 328.739 C 48.774 327.993,47.607 327.501,46.786 328.009 M353.108 327.826 C 352.984 327.950,352.352 328.066,351.704 328.085 C 350.644 328.115,350.520 328.257,350.473 329.498 C 350.433 330.561,350.557 330.825,351.011 330.651 C 351.335 330.527,351.600 330.599,351.600 330.813 C 351.600 331.026,351.780 331.200,352.000 331.200 C 352.220 331.200,352.400 330.930,352.400 330.600 C 352.400 330.270,352.226 330.000,352.014 330.000 C 351.802 330.000,351.428 329.626,351.184 329.170 C 350.777 328.410,350.810 328.377,351.570 328.784 C 352.026 329.028,352.400 329.402,352.400 329.614 C 352.400 329.826,352.670 330.000,353.000 330.000 C 353.330 330.000,353.600 329.820,353.600 329.600 C 353.600 329.380,353.414 329.200,353.186 329.200 C 352.905 329.200,352.910 328.942,353.200 328.400 C 353.614 327.626,353.572 327.362,353.108 327.826 M6.955 333.772 C 6.557 334.810,7.115 335.668,8.098 335.528 C 8.759 335.434,9.000 335.133,9.000 334.400 C 9.000 333.219,7.361 332.716,6.955 333.772 M32.555 333.772 C 32.157 334.810,32.715 335.668,33.698 335.528 C 34.359 335.434,34.600 335.133,34.600 334.400 C 34.600 333.219,32.961 332.716,32.555 333.772 M53.345 337.800 C 53.471 338.130,53.401 338.400,53.187 338.400 C 52.553 338.400,52.745 339.145,53.600 340.000 C 54.473 340.873,55.200 341.044,55.200 340.376 C 55.200 340.143,55.380 340.064,55.600 340.200 C 55.837 340.347,56.000 339.886,56.000 339.070 C 56.000 337.980,55.812 337.643,55.100 337.452 C 53.614 337.054,53.098 337.156,53.345 337.800 M345.100 337.520 C 343.597 337.702,343.408 340.251,344.900 340.216 C 346.162 340.186,346.896 339.628,346.620 338.909 C 346.492 338.573,346.566 338.081,346.787 337.816 C 347.214 337.301,347.091 337.279,345.100 337.520 M57.198 340.775 C 55.263 341.210,55.914 343.676,57.997 343.800 C 59.132 343.867,59.200 343.787,59.200 342.378 C 59.200 340.765,58.771 340.421,57.198 340.775 M340.800 341.736 C 340.800 342.769,342.643 343.917,343.280 343.280 C 343.491 343.069,343.440 342.486,343.155 341.861 C 342.511 340.447,340.800 340.356,340.800 341.736 M59.616 344.370 C 59.083 345.366,59.086 346.000,59.624 346.000 C 59.857 346.000,59.916 345.775,59.755 345.500 C 59.594 345.225,59.853 345.343,60.331 345.762 C 61.231 346.551,61.500 347.033,60.800 346.600 C 60.580 346.464,60.400 346.564,60.400 346.823 C 60.400 347.116,60.740 347.202,61.300 347.052 C 61.795 346.919,62.308 346.808,62.439 346.805 C 62.775 346.798,62.806 344.447,62.473 344.262 C 61.288 343.604,60.000 343.652,59.616 344.370 M338.831 344.636 C 337.463 345.787,337.155 346.666,338.343 346.030 C 339.032 345.662,340.641 343.600,340.240 343.600 C 340.142 343.600,339.508 344.066,338.831 344.636 M62.400 347.800 C 62.400 348.130,62.560 348.400,62.756 348.400 C 62.951 348.400,63.086 348.715,63.056 349.100 C 63.021 349.539,63.261 349.779,63.700 349.744 C 64.085 349.714,64.400 349.849,64.400 350.044 C 64.400 350.240,64.754 350.400,65.187 350.400 C 65.678 350.400,65.898 350.200,65.771 349.869 C 65.659 349.577,65.750 348.857,65.974 348.269 L 66.380 347.200 64.390 347.200 C 62.888 347.200,62.400 347.347,62.400 347.800 M330.019 351.023 C 330.613 351.739,331.200 351.770,331.200 351.085 C 331.200 350.802,330.826 350.542,330.370 350.508 C 329.689 350.456,329.626 350.549,330.019 351.023 M70.241 351.667 C 70.429 351.971,69.846 352.165,69.100 352.047 C 68.628 351.973,68.748 352.405,69.371 353.029 C 69.995 353.652,70.427 353.772,70.353 353.300 C 70.235 352.554,70.429 351.971,70.733 352.159 C 70.917 352.272,71.067 352.133,71.067 351.849 C 71.067 351.565,70.835 351.333,70.551 351.333 C 70.267 351.333,70.128 351.483,70.241 351.667 M328.108 352.770 C 328.142 353.226,328.402 353.600,328.685 353.600 C 329.370 353.600,329.339 353.013,328.623 352.419 C 328.149 352.026,328.056 352.089,328.108 352.770 M329.660 352.380 C 329.748 352.644,329.950 352.847,330.110 352.830 C 330.588 352.781,330.496 352.232,329.980 352.060 C 329.716 351.972,329.572 352.116,329.660 352.380 M72.400 354.371 C 72.400 354.796,72.692 355.435,73.050 355.793 C 73.749 356.492,75.452 356.460,75.320 355.750 C 75.273 355.497,75.646 355.396,76.220 355.506 C 76.787 355.614,77.200 355.505,77.200 355.247 C 77.200 354.821,76.628 354.624,75.832 354.775 C 75.630 354.814,75.697 354.565,75.981 354.223 C 76.437 353.673,76.258 353.600,74.449 353.600 C 72.692 353.600,72.400 353.710,72.400 354.371 M321.707 354.434 C 321.678 354.820,321.868 355.217,322.129 355.318 C 322.741 355.552,323.601 354.642,323.260 354.120 C 322.832 353.464,321.764 353.680,321.707 354.434 M74.523 355.964 C 74.355 356.198,72.800 354.742,72.800 354.352 C 72.800 354.174,73.214 354.427,73.720 354.914 C 74.226 355.401,74.587 355.874,74.523 355.964 M323.260 355.451 C 322.295 356.480,322.348 357.273,323.327 356.460 C 323.628 356.211,324.021 356.140,324.201 356.303 C 324.381 356.467,324.406 356.387,324.258 356.128 C 324.109 355.868,324.170 355.542,324.393 355.404 C 324.864 355.113,324.943 354.388,324.500 354.424 C 324.335 354.438,323.777 354.900,323.260 355.451 M22.955 356.172 C 22.557 357.210,23.115 358.068,24.098 357.928 C 24.759 357.834,25.000 357.533,25.000 356.800 C 25.000 355.619,23.361 355.116,22.955 356.172 M82.042 357.155 C 81.674 357.395,81.593 357.772,81.805 358.260 C 81.982 358.667,82.098 359.135,82.064 359.300 C 82.029 359.465,82.135 359.571,82.300 359.536 C 82.465 359.502,82.949 359.624,83.376 359.808 C 83.884 360.028,84.207 359.980,84.310 359.669 C 84.397 359.409,84.607 359.281,84.777 359.386 C 84.946 359.490,85.062 358.996,85.035 358.288 C 84.982 356.918,83.352 356.302,82.042 357.155 M314.496 357.788 C 314.599 358.331,314.549 358.692,314.384 358.590 C 314.219 358.488,313.977 358.683,313.846 359.023 C 313.711 359.377,313.778 359.537,314.005 359.397 C 314.222 359.263,314.400 359.343,314.400 359.576 C 314.400 359.809,314.670 360.000,315.000 360.000 C 315.330 360.000,315.600 359.831,315.600 359.625 C 315.600 359.418,316.095 359.283,316.700 359.325 C 317.638 359.389,317.793 359.252,317.753 358.400 C 317.728 357.850,317.908 357.268,318.153 357.106 C 318.399 356.944,317.634 356.809,316.453 356.806 C 314.385 356.800,314.314 356.836,314.496 357.788 M91.447 360.306 C 91.692 360.468,91.872 361.050,91.847 361.600 C 91.807 362.452,91.962 362.589,92.900 362.525 C 93.505 362.483,94.000 362.598,94.000 362.779 C 94.000 362.960,95.341 363.100,96.979 363.089 C 99.704 363.072,99.926 363.009,99.579 362.361 C 99.130 361.521,99.078 360.788,99.517 361.479 C 99.722 361.802,100.012 361.832,100.411 361.571 C 101.809 360.655,99.639 360.000,95.224 360.006 C 92.901 360.009,91.201 360.144,91.447 360.306 M301.017 360.372 C 300.891 360.577,300.998 360.875,301.255 361.034 C 301.567 361.227,301.616 361.149,301.400 360.800 C 301.184 360.451,301.233 360.373,301.545 360.566 C 302.195 360.968,301.710 361.617,300.971 361.333 C 300.639 361.206,300.396 361.259,300.431 361.451 C 300.601 362.384,300.321 362.804,299.500 362.846 C 298.716 362.887,298.700 362.918,299.374 363.090 C 299.840 363.209,300.366 362.992,300.698 362.543 C 301.221 361.838,301.276 361.836,301.769 362.500 C 302.309 363.229,303.250 363.417,303.767 362.900 C 303.932 362.735,304.277 362.600,304.533 362.600 C 304.790 362.600,305.000 362.390,305.000 362.133 C 305.000 361.877,305.135 361.532,305.300 361.367 C 305.465 361.202,305.600 360.827,305.600 360.533 C 305.600 359.908,301.395 359.760,301.017 360.372 M122.000 363.586 C 122.000 364.356,123.607 364.800,126.400 364.800 C 129.193 364.800,130.800 364.356,130.800 363.586 C 130.800 363.361,128.960 363.200,126.400 363.200 C 123.840 363.200,122.000 363.361,122.000 363.586 M195.700 363.700 C 195.792 363.975,196.287 364.200,196.800 364.200 C 197.313 364.200,197.808 363.975,197.900 363.700 C 198.010 363.370,197.636 363.200,196.800 363.200 C 195.964 363.200,195.590 363.370,195.700 363.700 M205.300 363.700 C 205.392 363.975,205.887 364.200,206.400 364.200 C 206.913 364.200,207.408 363.975,207.500 363.700 C 207.610 363.370,207.236 363.200,206.400 363.200 C 205.564 363.200,205.190 363.370,205.300 363.700 M282.155 365.772 C 281.757 366.810,282.315 367.668,283.298 367.528 C 283.959 367.434,284.200 367.133,284.200 366.400 C 284.200 365.219,282.561 364.716,282.155 365.772 M54.955 368.972 C 54.557 370.010,55.115 370.868,56.098 370.728 C 56.759 370.634,57.000 370.333,57.000 369.600 C 57.000 368.419,55.361 367.916,54.955 368.972 M83.755 381.772 C 83.357 382.810,83.915 383.668,84.898 383.528 C 85.559 383.434,85.800 383.133,85.800 382.400 C 85.800 381.219,84.161 380.716,83.755 381.772 M381.355 384.972 C 380.957 386.010,381.515 386.868,382.498 386.728 C 383.159 386.634,383.400 386.333,383.400 385.600 C 383.400 384.419,381.761 383.916,381.355 384.972 M314.155 388.172 C 313.757 389.210,314.315 390.068,315.298 389.928 C 315.959 389.834,316.200 389.533,316.200 388.800 C 316.200 387.619,314.561 387.116,314.155 388.172 M134.814 397.974 C 133.998 399.499,134.291 400.000,136.000 400.000 C 137.185 400.000,137.600 399.838,137.600 399.374 C 137.600 398.286,136.801 397.200,136.000 397.200 C 135.575 397.200,135.042 397.548,134.814 397.974 " stroke="none" fill="#e4dffa" fill-rule="evenodd"></path><path id="path1" d="M120.267 37.067 C 119.676 37.657,120.052 38.000,120.831 37.583 C 121.288 37.339,121.963 37.261,122.331 37.411 C 122.699 37.562,124.440 37.678,126.200 37.671 C 129.328 37.657,129.359 37.667,127.600 38.091 C 125.958 38.487,125.888 38.551,126.800 38.823 C 127.448 39.016,127.554 39.134,127.100 39.160 C 126.715 39.182,126.338 39.155,126.261 39.100 C 126.185 39.045,125.780 39.270,125.361 39.600 C 124.666 40.148,124.645 40.142,125.119 39.536 C 125.425 39.145,125.483 38.775,125.261 38.638 C 125.054 38.510,124.776 38.685,124.645 39.028 C 124.513 39.370,124.224 39.539,124.003 39.402 C 123.781 39.265,123.600 39.323,123.600 39.532 C 123.600 39.752,119.934 40.021,114.900 40.172 C 94.884 40.771,94.154 40.828,94.327 41.781 C 94.412 42.251,94.291 42.380,93.959 42.175 C 93.618 41.964,93.540 42.068,93.709 42.508 C 93.997 43.257,93.344 43.424,88.600 43.818 C 85.539 44.072,83.674 44.607,84.158 45.092 C 84.432 45.365,82.859 46.788,82.239 46.829 C 78.278 47.086,76.800 47.502,76.800 48.359 C 76.800 49.469,76.037 49.900,73.600 50.169 C 70.599 50.500,70.000 50.734,70.000 51.578 C 70.000 52.469,69.207 53.160,67.733 53.555 C 66.941 53.766,66.510 54.218,66.256 55.105 C 65.987 56.042,65.633 56.387,64.848 56.478 C 64.117 56.563,63.593 57.014,63.117 57.969 C 62.741 58.722,61.910 59.558,61.270 59.827 C 60.547 60.131,59.940 60.797,59.664 61.588 C 59.420 62.288,59.057 62.759,58.857 62.635 C 58.288 62.283,56.467 63.918,56.327 64.908 C 56.247 65.468,55.876 65.846,55.329 65.924 C 54.078 66.102,53.429 67.019,53.231 68.889 C 53.214 69.047,52.615 69.328,51.900 69.512 C 50.649 69.835,50.585 69.950,50.199 72.598 C 49.820 75.206,49.735 75.366,48.571 75.668 C 47.461 75.955,47.288 76.223,46.772 78.454 C 46.324 80.387,46.000 80.995,45.280 81.256 C 44.774 81.439,44.446 81.449,44.552 81.278 C 44.658 81.106,44.383 80.939,43.942 80.906 C 43.310 80.858,43.235 80.960,43.589 81.387 C 43.923 81.789,43.920 82.002,43.577 82.214 C 43.309 82.380,43.271 82.605,43.485 82.750 C 44.057 83.136,43.429 89.211,42.776 89.615 C 42.474 89.802,42.041 89.807,41.813 89.627 C 40.502 88.587,40.191 89.716,40.170 95.600 C 40.138 104.526,40.024 105.531,39.068 105.282 C 38.487 105.129,38.362 105.214,38.599 105.599 C 38.822 105.960,38.768 106.028,38.427 105.817 C 38.069 105.596,38.052 105.388,38.365 105.075 C 38.604 104.836,38.794 104.451,38.787 104.220 C 38.779 103.989,38.435 104.206,38.021 104.702 C 37.502 105.324,37.205 105.448,37.066 105.102 C 36.954 104.826,36.849 105.179,36.832 105.887 C 36.806 106.939,36.928 107.134,37.500 106.950 C 38.088 106.761,38.104 106.792,37.600 107.148 C 36.943 107.611,36.439 266.801,37.094 266.799 C 37.262 266.799,37.418 263.154,37.440 258.699 C 37.463 254.245,37.674 249.922,37.910 249.093 C 38.234 247.957,38.190 246.479,37.735 243.093 C 37.098 238.360,37.281 225.617,38.019 223.306 C 38.246 222.597,38.301 223.854,38.173 226.800 C 37.992 230.980,38.026 231.290,38.540 230.200 L 39.106 229.000 39.528 230.000 C 39.850 230.765,39.963 229.493,40.008 224.600 C 40.171 206.992,40.361 195.244,40.570 190.000 C 40.697 186.810,40.899 174.390,41.019 162.400 C 41.139 150.410,41.318 139.638,41.416 138.462 C 41.638 135.789,42.069 122.220,41.983 120.600 C 41.948 119.940,41.950 119.130,41.988 118.800 C 42.025 118.470,42.078 116.715,42.105 114.900 C 42.131 113.085,42.294 111.600,42.467 111.600 C 42.639 111.600,42.627 111.195,42.441 110.700 C 41.806 109.018,41.966 106.060,42.715 105.624 C 43.155 105.367,43.211 105.220,42.871 105.212 C 42.475 105.203,42.500 105.043,42.974 104.569 C 44.061 103.482,44.458 102.414,45.021 99.056 C 45.322 97.265,45.658 95.378,45.768 94.862 C 46.035 93.614,47.672 90.930,49.217 89.208 C 50.602 87.664,51.430 85.915,52.057 83.203 C 52.646 80.657,52.629 80.717,53.138 79.477 C 53.391 78.859,53.717 77.599,53.862 76.677 C 54.185 74.623,55.741 72.476,57.152 72.139 C 59.125 71.666,60.500 70.727,63.406 67.864 C 65.006 66.289,67.189 64.169,68.257 63.154 C 71.558 60.018,73.834 57.167,73.392 56.725 C 72.769 56.103,80.090 53.313,83.001 53.063 C 86.056 52.801,88.459 51.914,89.829 50.545 C 92.151 48.222,98.013 46.538,102.800 46.818 C 107.835 47.112,117.534 46.937,122.600 46.459 C 132.452 45.531,147.927 45.065,152.800 45.551 C 158.922 46.160,251.781 46.169,261.334 45.561 C 271.634 44.905,285.858 45.609,290.400 46.999 C 296.481 48.861,298.730 49.212,304.288 49.170 C 308.130 49.141,309.881 49.285,310.688 49.697 C 311.300 50.009,313.166 51.011,314.836 51.924 C 316.506 52.837,319.026 53.862,320.436 54.202 C 326.623 55.692,327.304 56.082,326.976 57.949 C 326.685 59.605,330.271 63.810,333.005 65.019 C 334.172 65.535,335.234 66.131,335.365 66.344 C 335.496 66.556,336.949 67.468,338.594 68.371 C 341.279 69.845,344.800 73.403,344.800 74.643 C 344.800 74.795,345.531 76.187,346.424 77.736 C 347.316 79.285,348.572 82.093,349.214 83.976 C 350.487 87.708,351.357 89.574,352.717 91.483 C 353.203 92.165,353.600 92.931,353.600 93.185 C 353.600 93.439,353.757 93.550,353.949 93.431 C 354.142 93.312,354.526 94.337,354.803 95.708 C 355.510 99.210,355.541 99.520,355.813 106.000 C 355.947 109.190,356.239 113.330,356.463 115.200 C 356.687 117.070,356.936 119.410,357.016 120.400 C 357.097 121.390,357.275 122.830,357.413 123.600 C 357.706 125.233,357.933 140.008,358.223 176.200 C 358.337 190.500,358.598 203.370,358.802 204.800 C 359.199 207.573,358.958 248.192,358.426 268.400 C 358.174 277.935,358.242 300.697,358.535 305.200 C 358.584 305.957,358.381 306.231,357.699 306.328 C 356.448 306.506,356.013 307.518,355.381 311.726 C 354.970 314.463,354.635 315.524,354.037 315.986 C 353.520 316.385,353.009 317.650,352.577 319.600 C 352.071 321.886,351.638 322.856,350.756 323.677 C 350.120 324.270,349.600 325.088,349.600 325.494 C 349.600 325.901,348.980 326.891,348.221 327.695 C 347.463 328.499,346.635 329.932,346.382 330.878 C 345.825 332.961,345.346 333.600,344.338 333.600 C 343.558 333.600,343.448 333.777,343.022 335.714 C 342.886 336.336,342.366 337.015,341.844 337.253 C 341.331 337.486,340.661 338.240,340.355 338.928 C 340.023 339.676,339.411 340.267,338.832 340.399 C 338.174 340.550,337.715 341.066,337.399 342.010 C 337.013 343.164,336.714 343.422,335.644 343.527 C 334.337 343.656,334.251 343.758,333.832 345.676 C 333.636 346.575,333.354 346.772,332.122 346.876 C 330.833 346.984,330.604 347.164,330.312 348.300 C 330.128 349.015,329.757 349.621,329.489 349.646 C 327.608 349.824,326.000 350.468,326.000 351.043 C 326.000 351.350,325.809 351.600,325.576 351.600 C 325.343 351.600,325.266 351.783,325.404 352.007 C 325.542 352.230,325.806 352.320,325.990 352.206 C 326.175 352.092,326.231 352.359,326.116 352.799 C 325.999 353.247,326.104 353.600,326.353 353.600 C 326.599 353.600,326.814 353.285,326.832 352.900 C 326.850 352.482,326.944 352.401,327.065 352.700 C 327.390 353.505,328.415 353.310,328.120 352.500 C 327.890 351.872,327.953 351.878,328.732 352.562 C 329.499 353.236,329.600 353.247,329.600 352.662 C 329.600 352.298,329.898 352.000,330.262 352.000 C 330.863 352.000,330.860 351.929,330.220 351.222 C 329.546 350.477,329.547 350.443,330.258 350.440 C 333.140 350.428,334.100 349.977,334.100 348.633 C 334.100 348.083,334.468 347.311,334.919 346.917 C 335.369 346.523,335.599 346.437,335.429 346.727 C 334.800 347.798,336.572 346.997,337.744 345.680 C 339.169 344.078,340.894 343.132,341.875 343.415 C 342.294 343.536,342.220 343.425,341.700 343.151 C 340.435 342.486,340.463 340.800,341.739 340.800 C 342.309 340.800,342.860 341.154,343.141 341.700 L 343.604 342.600 343.375 341.700 C 343.244 341.186,343.329 340.800,343.573 340.800 C 343.808 340.800,344.000 340.080,344.000 339.200 C 344.000 337.773,344.108 337.595,345.000 337.550 C 345.550 337.523,346.213 337.477,346.474 337.450 C 346.734 337.422,347.019 336.770,347.107 336.000 C 347.296 334.348,347.221 334.453,348.330 334.284 C 349.252 334.143,350.165 333.428,350.250 332.780 C 350.278 332.571,350.322 332.130,350.350 331.800 C 350.378 331.470,350.670 331.200,351.000 331.200 C 351.330 331.200,351.600 331.026,351.600 330.813 C 351.600 330.599,351.335 330.527,351.011 330.651 C 350.557 330.825,350.433 330.561,350.473 329.501 C 350.521 328.220,350.620 328.121,351.901 328.073 C 352.961 328.033,353.225 328.157,353.051 328.611 C 352.927 328.935,353.011 329.200,353.238 329.200 C 353.465 329.200,353.618 328.885,353.579 328.500 C 353.309 325.846,353.610 324.349,354.366 324.589 C 354.788 324.723,355.250 324.642,355.394 324.410 C 355.538 324.177,355.851 324.108,356.089 324.255 C 356.339 324.409,356.409 324.339,356.255 324.089 C 356.108 323.851,356.131 323.566,356.306 323.458 C 356.482 323.349,356.669 322.212,356.722 320.930 C 356.775 319.649,356.995 318.540,357.209 318.467 C 357.424 318.393,357.600 318.158,357.600 317.943 C 357.600 317.728,357.409 317.671,357.175 317.815 C 356.894 317.989,356.792 317.491,356.875 316.339 C 356.966 315.073,357.157 314.634,357.578 314.726 C 358.449 314.916,359.942 313.983,359.943 313.248 C 359.945 304.698,360.092 300.484,360.403 300.000 C 360.682 299.564,360.789 299.543,360.794 299.924 C 360.797 300.212,360.980 300.336,361.200 300.200 C 361.420 300.064,361.600 300.143,361.600 300.376 C 361.600 300.609,361.409 300.800,361.176 300.800 C 360.943 300.800,360.865 300.981,361.002 301.203 C 361.156 301.453,361.479 301.378,361.851 301.006 C 362.181 300.676,362.340 300.227,362.205 300.008 C 362.062 299.777,362.221 299.710,362.579 299.847 C 362.921 299.978,363.200 299.886,363.200 299.643 C 363.200 299.399,362.998 299.200,362.751 299.200 C 362.421 299.200,362.422 299.056,362.755 298.655 C 363.304 297.993,363.376 117.496,362.828 115.103 C 362.594 114.077,362.618 113.688,362.906 113.866 C 363.194 114.043,363.244 113.328,363.064 111.604 C 362.919 110.217,362.800 108.794,362.800 108.441 C 362.799 107.711,360.764 107.411,360.350 108.080 C 360.025 108.606,359.849 103.544,359.899 95.124 C 359.933 89.514,359.849 88.483,359.372 88.666 C 359.060 88.786,358.920 89.071,359.062 89.300 C 359.426 89.889,357.096 89.268,356.694 88.668 C 356.521 88.411,356.429 86.895,356.490 85.299 C 356.556 83.561,356.440 82.396,356.200 82.393 C 355.945 82.390,355.950 82.281,356.213 82.094 C 356.959 81.564,356.318 79.756,355.553 80.229 C 355.301 80.385,355.310 80.651,355.579 80.975 C 355.898 81.359,355.721 81.486,354.829 81.512 C 353.758 81.542,353.640 81.406,353.404 79.872 C 352.783 75.830,352.761 75.767,351.911 75.703 C 351.096 75.642,350.229 75.033,350.170 74.480 C 349.811 71.122,349.460 70.301,348.148 69.753 C 347.086 69.309,346.799 68.957,346.794 68.095 C 346.786 66.662,346.428 66.179,345.140 65.864 C 344.436 65.692,343.938 65.196,343.655 64.387 C 343.383 63.606,342.818 63.025,342.081 62.768 C 341.381 62.524,340.709 61.864,340.365 61.084 C 339.958 60.160,339.493 59.765,338.705 59.674 C 337.853 59.576,337.536 59.264,337.282 58.274 C 337.032 57.303,336.627 56.892,335.577 56.544 C 334.366 56.142,334.200 55.923,334.200 54.722 C 334.200 53.779,334.015 53.355,333.600 53.350 C 331.202 53.321,330.763 53.155,330.300 52.100 C 329.673 50.674,329.425 50.521,327.234 50.213 C 324.642 49.848,324.000 49.617,324.000 49.049 C 324.000 47.866,322.948 47.186,320.800 46.984 C 317.204 46.644,316.925 46.523,316.656 45.179 C 316.519 44.494,316.230 44.058,316.005 44.197 C 315.782 44.335,315.600 44.302,315.599 44.124 C 315.598 43.946,314.113 43.790,312.299 43.778 C 307.250 43.745,305.530 42.621,307.284 40.500 C 307.606 40.112,307.420 40.056,306.449 40.250 C 305.584 40.423,305.200 40.346,305.200 40.001 C 305.200 39.628,305.064 39.615,304.661 39.949 C 304.274 40.270,299.780 40.338,288.761 40.187 C 280.312 40.071,273.042 39.974,272.605 39.971 C 272.014 39.966,271.949 39.879,272.350 39.631 C 272.647 39.447,272.735 39.215,272.545 39.114 C 272.355 39.013,272.470 39.016,272.800 39.121 C 273.712 39.408,276.572 39.638,276.338 39.405 C 276.225 39.292,275.596 39.137,274.940 39.061 C 273.188 38.857,272.143 38.208,272.849 37.761 C 273.525 37.333,275.600 37.287,275.600 37.700 C 275.600 37.865,275.015 38.005,274.300 38.012 C 273.230 38.022,273.123 38.096,273.695 38.429 C 274.167 38.704,274.642 38.699,275.178 38.412 C 275.612 38.179,276.189 38.037,276.460 38.095 C 276.731 38.153,277.026 37.860,277.116 37.444 C 277.273 36.720,277.022 36.700,271.140 36.951 C 259.972 37.427,257.804 37.472,257.400 37.235 C 256.475 36.692,249.806 36.993,249.299 37.600 C 248.864 38.121,248.830 38.108,249.041 37.503 C 249.384 36.517,132.517 36.428,132.139 37.415 C 132.016 37.737,131.732 38.000,131.508 38.000 C 131.274 38.000,131.313 37.746,131.600 37.400 C 132.124 36.769,120.895 36.438,120.267 37.067 M178.300 37.891 C 177.475 37.978,176.125 37.978,175.300 37.891 C 174.475 37.805,175.150 37.734,176.800 37.734 C 178.450 37.734,179.125 37.805,178.300 37.891 M216.800 38.173 C 219.822 38.613,220.303 38.770,220.543 39.397 C 220.738 39.904,220.315 39.989,217.887 39.931 L 215.000 39.862 217.600 39.600 L 220.200 39.338 217.733 39.269 C 215.008 39.193,213.890 38.902,214.226 38.358 C 214.354 38.150,209.060 38.000,201.600 38.000 C 194.140 38.000,188.846 38.150,188.974 38.358 C 189.310 38.902,188.192 39.193,185.467 39.269 L 183.000 39.338 185.600 39.600 L 188.200 39.862 185.300 39.931 C 183.705 39.969,182.400 39.923,182.400 39.829 C 182.400 39.106,183.926 38.396,185.529 38.372 C 186.558 38.356,187.760 38.185,188.200 37.992 C 189.088 37.601,213.955 37.759,216.800 38.173 M247.893 37.840 C 247.761 37.972,246.999 38.080,246.200 38.080 C 245.401 38.080,244.639 37.972,244.507 37.840 C 244.375 37.708,245.137 37.600,246.200 37.600 C 247.263 37.600,248.025 37.708,247.893 37.840 M271.352 37.982 C 271.236 38.097,270.247 38.209,269.154 38.230 C 268.007 38.252,267.384 38.133,267.682 37.948 C 268.240 37.603,271.699 37.634,271.352 37.982 M261.167 38.655 C 261.258 38.735,260.493 38.800,259.467 38.800 C 258.440 38.800,257.600 38.637,257.600 38.438 C 257.600 38.112,260.764 38.305,261.167 38.655 M162.647 39.100 C 163.439 39.888,161.882 40.184,158.325 39.923 C 155.779 39.736,157.249 38.400,160.000 38.400 C 161.315 38.400,162.170 38.626,162.647 39.100 M178.105 38.682 C 177.614 38.777,176.714 38.779,176.105 38.687 C 175.497 38.595,175.900 38.517,177.000 38.514 C 178.100 38.511,178.597 38.587,178.105 38.682 M241.800 38.800 C 241.952 39.047,241.156 39.226,239.724 39.267 L 237.400 39.334 239.800 39.600 L 242.200 39.866 239.500 39.933 C 236.576 40.006,236.489 39.968,237.429 39.029 C 238.132 38.325,241.401 38.154,241.800 38.800 M158.700 39.489 C 159.415 39.578,160.585 39.578,161.300 39.489 C 162.015 39.401,161.430 39.328,160.000 39.328 C 158.570 39.328,157.985 39.401,158.700 39.489 M362.493 106.000 C 362.076 106.667,362.093 106.800,362.597 106.800 C 362.933 106.800,363.200 106.446,363.200 106.000 C 363.200 105.560,363.153 105.200,363.096 105.200 C 363.039 105.200,362.768 105.560,362.493 106.000 M104.522 135.654 C 100.675 136.123,94.631 140.414,93.807 143.261 C 93.658 143.777,93.190 144.963,92.768 145.896 C 92.345 146.828,92.000 147.777,92.000 148.004 C 92.000 148.231,91.325 150.078,90.500 152.109 L 89.000 155.800 89.019 180.800 C 89.037 206.083,89.530 221.973,90.341 223.489 C 90.585 223.945,91.335 226.452,92.009 229.059 C 95.826 243.844,107.060 254.844,121.000 257.447 C 124.137 258.032,196.018 258.639,231.974 258.383 C 239.389 258.330,246.932 252.198,245.963 247.011 C 245.544 244.773,245.813 240.405,246.627 236.200 C 247.135 233.575,247.242 229.584,247.223 214.000 C 247.198 193.619,247.489 187.915,248.792 183.200 C 249.249 181.550,249.802 178.504,250.022 176.430 L 250.422 172.660 249.251 171.430 C 245.533 167.522,244.272 164.596,243.794 158.780 C 243.494 155.118,242.447 153.087,240.231 151.865 C 239.367 151.389,237.927 150.206,237.031 149.235 C 236.134 148.265,234.632 146.980,233.693 146.381 C 232.755 145.781,231.638 144.848,231.213 144.307 C 230.519 143.425,224.033 138.800,223.490 138.800 C 223.369 138.800,222.323 138.176,221.165 137.414 C 220.008 136.652,218.327 135.922,217.431 135.792 C 215.199 135.470,107.118 135.337,104.522 135.654 M212.964 139.805 C 237.200 144.811,246.198 159.358,244.013 190.000 C 243.801 192.970,243.517 197.016,243.381 198.992 C 243.245 200.967,243.069 202.688,242.990 202.816 C 242.601 203.445,241.969 214.034,241.604 226.034 C 240.777 253.236,240.257 254.418,228.747 255.205 C 222.076 255.662,133.805 255.673,128.727 255.219 C 116.611 254.133,104.224 246.864,100.066 238.400 C 99.364 236.970,98.440 235.170,98.013 234.400 C 97.280 233.076,96.828 230.380,94.662 214.400 C 94.349 212.090,94.062 207.410,94.026 204.000 C 93.989 200.590,93.722 188.710,93.431 177.600 C 92.812 153.898,92.905 152.608,95.619 147.183 C 97.665 143.093,101.784 140.242,106.547 139.621 C 111.581 138.965,209.716 139.134,212.964 139.805 M293.688 140.825 C 292.746 141.011,291.306 141.241,290.488 141.338 C 288.584 141.562,286.396 142.344,285.497 143.121 C 285.111 143.455,284.391 143.927,283.897 144.169 C 283.404 144.411,282.370 145.794,281.600 147.242 C 279.978 150.292,278.846 151.693,276.544 153.499 C 275.633 154.213,274.193 155.715,273.344 156.837 C 272.495 157.958,270.630 159.641,269.200 160.576 C 267.770 161.511,265.345 163.484,263.811 164.960 C 262.277 166.436,260.052 168.198,258.867 168.876 C 255.224 170.960,254.452 174.326,255.786 182.300 C 256.367 185.774,257.021 195.020,257.393 205.000 C 258.144 225.196,260.525 230.758,271.600 238.200 C 282.577 245.575,285.042 247.385,290.000 251.710 C 296.103 257.033,297.250 257.585,300.635 256.827 C 302.865 256.328,306.355 253.763,307.205 252.000 C 308.794 248.702,308.814 248.540,310.168 227.400 C 310.506 222.120,310.870 217.170,310.977 216.400 C 311.084 215.630,311.269 209.870,311.386 203.600 C 311.504 197.330,311.693 190.400,311.805 188.200 C 311.918 186.000,312.026 178.260,312.045 171.000 L 312.080 157.800 310.783 154.600 C 310.069 152.840,308.982 149.601,308.367 147.402 C 306.555 140.922,302.474 139.094,293.688 140.825 M364.909 142.400 C 364.909 143.390,364.987 143.795,365.082 143.300 C 365.178 142.805,365.178 141.995,365.082 141.500 C 364.987 141.005,364.909 141.410,364.909 142.400 M303.599 144.000 C 307.490 145.984,307.862 148.541,307.242 169.000 C 306.975 177.800,306.595 190.760,306.397 197.800 C 306.199 204.840,305.942 213.300,305.826 216.600 C 305.709 219.900,305.510 226.560,305.383 231.400 C 304.904 249.730,303.361 254.070,297.699 253.007 C 290.967 251.745,267.135 230.276,261.441 220.345 C 259.406 216.796,258.600 207.339,258.600 187.000 C 258.600 176.993,260.428 173.522,270.296 164.800 C 273.407 162.050,279.348 156.537,283.498 152.548 C 293.736 142.708,297.735 141.008,303.599 144.000 M365.340 148.800 C 365.340 150.670,365.409 151.435,365.493 150.500 C 365.577 149.565,365.577 148.035,365.493 147.100 C 365.409 146.165,365.340 146.930,365.340 148.800 M365.354 233.600 C 365.354 236.350,365.418 237.475,365.496 236.100 C 365.574 234.725,365.574 232.475,365.496 231.100 C 365.418 229.725,365.354 230.850,365.354 233.600 M38.131 239.800 C 38.133 241.340,38.205 241.921,38.292 241.091 C 38.379 240.261,38.377 239.001,38.289 238.291 C 38.200 237.581,38.129 238.260,38.131 239.800 M38.827 242.380 C 38.806 243.432,38.911 243.649,39.267 243.293 C 39.612 242.948,39.619 242.588,39.294 241.913 C 38.881 241.056,38.852 241.084,38.827 242.380 M39.293 247.600 C 39.293 248.370,39.375 248.685,39.476 248.300 C 39.576 247.915,39.576 247.285,39.476 246.900 C 39.375 246.515,39.293 246.830,39.293 247.600 M365.369 259.200 C 365.369 263.710,365.427 265.555,365.498 263.300 C 365.570 261.045,365.570 257.355,365.498 255.100 C 365.427 252.845,365.369 254.690,365.369 259.200 M364.909 270.400 C 364.909 271.390,364.987 271.795,365.082 271.300 C 365.178 270.805,365.178 269.995,365.082 269.500 C 364.987 269.005,364.909 269.410,364.909 270.400 M37.600 273.624 C 37.600 273.857,37.435 273.945,37.233 273.820 C 36.508 273.372,36.713 298.407,37.444 299.523 C 37.795 300.059,37.884 300.376,37.641 300.226 C 37.399 300.076,37.200 300.128,37.200 300.343 C 37.200 300.558,37.425 300.824,37.700 300.935 C 37.989 301.052,37.892 301.150,37.472 301.168 C 36.579 301.207,36.686 302.842,37.600 303.119 C 38.084 303.265,38.104 303.198,37.700 302.770 C 36.951 301.977,37.096 301.480,38.007 301.718 C 38.451 301.834,39.081 301.662,39.407 301.336 C 39.931 300.812,40.006 301.444,40.050 306.771 C 40.107 313.596,40.096 313.429,40.497 313.830 C 40.660 313.993,40.586 314.376,40.333 314.680 C 39.986 315.099,39.993 315.352,40.361 315.717 C 40.742 316.095,40.789 316.047,40.579 315.495 C 40.368 314.940,40.462 314.849,41.021 315.063 C 41.508 315.250,41.640 315.189,41.442 314.868 C 41.056 314.243,41.674 314.273,42.561 314.922 C 43.151 315.353,43.251 315.911,43.138 318.123 C 43.062 319.596,43.115 320.801,43.256 320.801 C 43.396 320.800,43.486 321.096,43.456 321.457 C 43.425 321.818,43.650 322.202,43.956 322.309 C 44.295 322.428,44.402 322.328,44.232 322.052 C 44.078 321.803,44.149 321.600,44.389 321.600 C 44.629 321.600,44.938 321.895,45.077 322.256 C 45.304 322.849,45.380 322.842,45.864 322.180 C 46.429 321.408,46.492 321.837,46.503 326.505 C 46.505 327.377,46.695 327.988,46.953 327.958 C 48.276 327.802,48.764 328.031,48.534 328.700 C 48.338 329.269,48.413 329.250,48.933 328.600 C 49.588 327.783,49.670 328.306,49.715 333.605 C 49.719 334.061,50.086 334.175,51.207 334.068 C 52.853 333.911,53.375 334.742,52.985 336.896 C 52.880 337.475,52.973 338.060,53.192 338.195 C 53.423 338.338,53.490 338.179,53.353 337.821 C 53.097 337.154,53.596 337.049,55.100 337.452 C 55.812 337.643,56.000 337.980,56.000 339.070 C 56.000 340.009,55.853 340.356,55.538 340.162 C 55.243 339.979,55.185 340.053,55.379 340.365 C 55.545 340.634,56.248 340.824,56.940 340.787 C 59.160 340.667,59.200 340.700,59.200 342.649 C 59.200 344.128,59.305 344.411,59.724 344.063 C 60.726 343.232,62.594 344.105,62.646 345.428 C 62.671 346.073,62.491 346.732,62.246 346.894 C 62.001 347.056,62.826 347.191,64.079 347.194 L 66.358 347.200 65.933 348.420 C 65.361 350.061,65.565 350.250,68.024 350.350 C 68.697 350.378,69.146 350.564,69.022 350.764 C 68.645 351.374,69.230 352.363,69.831 352.133 C 70.141 352.014,70.314 351.785,70.215 351.625 C 70.116 351.464,70.267 351.333,70.551 351.333 C 70.835 351.333,71.067 351.565,71.067 351.849 C 71.067 352.133,70.936 352.284,70.775 352.185 C 70.615 352.086,70.381 352.274,70.254 352.602 C 70.128 352.931,70.244 353.227,70.513 353.261 C 70.781 353.294,71.180 353.364,71.400 353.415 C 71.620 353.466,72.857 353.528,74.149 353.554 C 76.227 353.595,76.438 353.672,75.981 354.223 C 75.697 354.565,75.630 354.814,75.832 354.775 C 76.628 354.624,77.200 354.821,77.200 355.247 C 77.200 355.499,76.794 355.616,76.267 355.515 C 75.680 355.403,75.333 355.528,75.333 355.851 C 75.333 356.133,75.491 356.267,75.684 356.148 C 75.877 356.029,76.297 356.149,76.618 356.415 C 77.062 356.783,77.333 356.787,77.761 356.432 C 78.130 356.126,78.370 356.108,78.461 356.380 C 78.537 356.608,80.023 356.841,81.763 356.897 C 85.031 357.003,85.924 357.646,84.758 359.051 C 84.177 359.751,84.669 359.879,88.000 359.893 C 89.650 359.900,90.774 359.822,90.498 359.719 C 90.221 359.616,90.126 359.322,90.286 359.066 C 91.445 357.210,90.559 356.589,86.241 356.234 C 82.547 355.930,82.400 355.866,82.400 354.564 C 82.400 353.406,82.240 353.338,78.737 353.001 C 76.272 352.763,76.038 352.657,75.590 351.575 C 75.111 350.420,74.778 350.261,71.100 349.432 C 70.271 349.246,70.000 348.946,70.000 348.216 C 70.000 347.158,69.617 346.806,67.805 346.200 C 67.147 345.980,66.391 345.344,66.125 344.788 C 65.854 344.222,65.023 343.552,64.241 343.269 C 63.472 342.991,62.736 342.428,62.605 342.017 C 62.475 341.607,61.746 340.796,60.984 340.215 C 60.223 339.634,59.600 338.818,59.600 338.401 C 59.600 337.969,59.128 337.418,58.500 337.117 C 57.818 336.791,57.229 336.061,56.950 335.195 C 56.656 334.282,56.143 333.671,55.465 333.428 C 54.814 333.194,54.207 332.502,53.832 331.563 C 53.503 330.741,52.893 329.829,52.477 329.535 C 51.572 328.896,50.600 327.083,50.223 325.329 C 50.072 324.631,49.538 323.789,49.036 323.460 C 48.379 323.030,47.972 322.153,47.587 320.341 C 47.187 318.455,46.750 317.544,45.852 316.724 C 44.731 315.700,44.635 315.383,44.401 311.914 C 44.144 308.104,43.593 306.400,42.618 306.400 C 41.526 306.400,41.201 300.191,41.822 291.199 C 42.002 288.592,41.924 286.833,41.575 285.599 C 40.920 283.288,40.367 279.365,40.236 276.100 C 40.216 275.605,40.075 275.200,39.923 275.200 C 39.771 275.200,39.708 274.877,39.784 274.482 C 39.876 274.008,39.664 273.745,39.161 273.707 C 38.743 273.676,38.400 273.819,38.400 274.025 C 38.400 274.231,38.580 274.400,38.800 274.400 C 39.020 274.400,39.200 274.610,39.200 274.867 C 39.200 275.123,39.082 275.215,38.937 275.070 C 38.792 274.925,38.402 275.030,38.069 275.303 C 37.545 275.734,37.499 275.627,37.723 274.500 C 37.864 273.785,37.895 273.200,37.790 273.200 C 37.686 273.200,37.600 273.391,37.600 273.624 M356.157 322.233 C 356.474 323.058,356.466 323.399,356.137 323.070 C 355.775 322.708,354.756 323.605,355.028 324.045 C 355.286 324.462,355.097 324.489,354.233 324.157 C 353.885 324.024,353.600 323.734,353.600 323.514 C 353.600 323.294,353.848 323.210,354.151 323.326 C 354.454 323.442,354.890 323.350,355.120 323.120 C 355.350 322.890,355.442 322.454,355.326 322.151 C 355.210 321.848,355.294 321.600,355.514 321.600 C 355.734 321.600,356.024 321.885,356.157 322.233 M350.800 328.579 C 350.800 329.016,352.705 330.761,352.933 330.533 C 353.073 330.394,352.731 329.857,352.173 329.340 C 351.187 328.426,350.800 328.212,350.800 328.579 M47.200 329.224 C 47.200 329.457,46.975 329.512,46.700 329.347 C 46.387 329.159,46.420 329.337,46.787 329.823 C 47.110 330.250,47.402 330.653,47.437 330.717 C 47.472 330.781,47.500 330.376,47.500 329.817 C 47.500 329.257,47.433 328.800,47.350 328.800 C 47.268 328.800,47.200 328.991,47.200 329.224 M59.769 345.867 C 59.822 346.233,60.182 346.580,60.568 346.636 C 61.235 346.734,61.235 346.701,60.573 345.970 C 59.722 345.030,59.644 345.020,59.769 345.867 M319.200 353.600 C 318.650 353.776,318.400 353.938,318.645 353.960 C 318.911 353.984,319.028 354.559,318.936 355.391 L 318.783 356.781 320.292 356.624 C 321.121 356.537,321.907 356.452,322.039 356.433 C 322.511 356.367,323.884 354.982,324.351 354.100 C 324.869 353.123,321.661 352.812,319.200 353.600 M323.260 354.120 C 323.601 354.642,322.741 355.552,322.129 355.318 C 321.441 355.053,321.648 353.734,322.380 353.727 C 322.721 353.724,323.117 353.900,323.260 354.120 M310.913 356.722 C 310.165 357.197,310.076 359.677,310.800 359.887 C 311.333 360.042,311.333 360.014,310.800 359.637 C 310.431 359.375,310.383 359.210,310.676 359.206 C 310.938 359.203,311.251 359.359,311.371 359.553 C 311.648 360.001,313.836 359.907,314.272 359.430 C 314.459 359.226,314.387 359.194,314.105 359.357 C 313.771 359.548,313.687 359.439,313.846 359.023 C 313.977 358.683,314.219 358.488,314.384 358.590 C 314.549 358.692,314.601 358.341,314.500 357.810 C 314.326 356.900,314.438 356.836,316.458 356.696 C 317.907 356.596,317.435 356.526,315.000 356.480 C 313.020 356.443,311.181 356.552,310.913 356.722 M96.082 359.962 C 100.016 360.203,101.657 360.823,100.407 361.596 C 100.028 361.830,99.713 361.788,99.517 361.479 C 99.059 360.758,99.139 361.538,99.614 362.426 C 100.141 363.410,101.259 363.472,100.957 362.500 C 100.756 361.853,100.773 361.851,101.176 362.475 C 101.545 363.046,102.277 363.142,105.906 363.097 C 108.813 363.061,109.683 362.958,108.600 362.779 C 107.720 362.633,107.360 362.482,107.800 362.444 C 108.501 362.383,108.524 362.314,107.985 361.887 C 107.647 361.619,107.432 361.105,107.506 360.744 C 107.682 359.894,106.074 359.717,98.200 359.721 C 92.820 359.723,92.601 359.748,96.082 359.962 M294.492 359.925 C 293.600 360.011,293.281 360.202,293.486 360.526 C 293.903 361.181,293.894 361.753,293.462 362.055 C 292.426 362.781,293.919 363.117,297.701 363.010 C 302.564 362.872,302.282 362.922,301.663 362.303 C 301.268 361.908,301.092 361.927,300.801 362.398 C 300.518 362.855,300.451 362.784,300.504 362.085 C 300.545 361.541,300.772 361.257,301.073 361.373 C 301.739 361.628,302.143 360.936,301.545 360.566 C 301.233 360.373,301.184 360.451,301.400 360.800 C 301.622 361.160,301.568 361.227,301.227 361.017 C 300.551 360.599,301.151 360.100,302.600 359.876 C 303.907 359.674,296.623 359.718,294.492 359.925 " stroke="none" fill="#e872f2" fill-rule="evenodd"></path><path id="path2" d="M252.400 177.861 C 248.438 179.166,247.450 183.954,247.421 202.000 L 247.400 215.000 248.539 218.600 C 250.202 223.856,252.121 227.763,254.302 230.334 C 255.360 231.580,256.576 233.275,257.004 234.100 C 257.432 234.925,257.885 235.600,258.012 235.600 C 258.139 235.600,259.138 236.455,260.233 237.500 C 261.328 238.545,263.479 240.581,265.012 242.024 C 266.545 243.467,268.700 245.783,269.800 247.171 C 272.692 250.819,278.053 256.800,278.431 256.800 C 278.609 256.800,279.800 257.766,281.077 258.948 C 291.590 268.667,307.200 269.330,307.200 260.056 C 307.200 259.683,307.472 258.990,307.804 258.515 C 308.511 257.507,308.275 254.125,307.439 253.276 C 307.014 252.844,306.546 253.073,304.804 254.560 C 299.983 258.675,297.398 258.176,289.995 251.703 C 287.028 249.109,283.250 246.093,281.600 245.000 C 279.950 243.908,276.890 241.814,274.800 240.346 C 272.710 238.879,269.831 237.076,268.402 236.339 C 261.123 232.588,258.097 223.972,257.393 205.000 C 256.514 181.284,255.685 176.779,252.400 177.861 M94.085 240.634 C 93.589 241.519,94.197 244.934,95.089 246.279 C 95.880 247.472,96.307 248.171,97.609 250.400 C 98.059 251.170,98.916 252.546,99.514 253.457 C 100.111 254.369,101.379 256.383,102.332 257.934 C 104.604 261.634,108.032 264.153,113.226 265.940 C 114.424 266.352,116.558 267.272,117.969 267.984 C 124.495 271.279,131.581 271.661,185.200 271.609 C 222.286 271.574,231.571 270.771,238.788 266.978 C 243.793 264.348,247.189 258.609,244.764 256.877 C 242.503 255.262,242.004 255.250,238.802 256.732 C 235.857 258.094,232.230 258.800,229.736 258.496 C 229.111 258.419,205.200 258.303,176.600 258.238 C 120.951 258.111,121.063 258.114,115.600 256.116 C 110.254 254.161,100.730 246.978,98.473 243.199 C 97.964 242.346,96.919 241.277,96.151 240.824 C 94.476 239.836,94.529 239.841,94.085 240.634 M349.490 316.374 C 349.099 317.216,348.369 318.348,347.868 318.889 C 347.366 319.430,346.470 320.846,345.877 322.036 C 344.766 324.264,341.020 327.200,339.289 327.200 C 338.888 327.200,338.374 327.386,338.146 327.614 C 337.516 328.244,334.365 326.736,332.674 324.995 L 331.235 323.513 329.365 324.150 C 327.567 324.763,324.854 327.216,324.817 328.264 C 324.719 330.985,317.210 330.679,313.438 327.802 C 311.655 326.442,309.471 326.198,305.962 326.967 C 302.792 327.662,154.057 327.791,153.366 327.099 C 152.957 326.690,150.897 326.720,150.638 327.139 C 150.379 327.557,128.092 327.419,125.600 326.985 C 124.013 326.708,123.860 326.743,124.304 327.281 C 124.741 327.810,124.594 327.891,123.200 327.891 C 121.806 327.891,121.659 327.810,122.096 327.281 C 122.541 326.742,122.388 326.709,120.800 327.000 C 119.810 327.181,116.120 327.348,112.600 327.370 C 108.321 327.397,105.911 327.574,105.326 327.905 C 104.846 328.177,104.126 328.406,103.726 328.413 C 103.327 328.420,102.661 328.682,102.246 328.996 C 100.906 330.011,98.089 330.205,97.142 329.348 C 96.688 328.936,96.290 328.679,96.258 328.775 C 96.226 328.871,95.750 328.666,95.200 328.319 C 94.650 327.973,93.484 327.462,92.610 327.184 C 91.735 326.906,90.475 326.346,89.810 325.941 C 89.144 325.535,87.914 325.202,87.076 325.201 C 86.163 325.201,85.652 325.040,85.800 324.800 C 85.936 324.580,85.671 324.400,85.211 324.400 C 84.751 324.400,84.271 324.670,84.145 325.000 C 84.018 325.330,83.703 325.600,83.445 325.600 C 82.558 325.600,78.443 328.435,78.194 329.217 C 78.058 329.648,77.716 330.000,77.435 330.000 C 76.517 330.000,75.396 331.556,75.929 332.089 C 76.969 333.129,75.990 335.335,74.812 334.607 C 74.324 334.306,74.062 332.409,74.473 332.155 C 75.111 331.761,73.980 330.832,72.530 330.560 C 71.689 330.403,70.962 330.478,70.690 330.750 C 69.786 331.654,68.521 331.258,67.971 329.900 C 66.713 326.795,63.833 324.800,60.607 324.800 C 58.374 324.800,55.334 322.605,52.365 318.848 C 48.949 314.525,48.557 314.589,48.116 319.546 C 47.891 322.076,47.899 322.101,49.345 323.426 C 50.145 324.159,50.800 324.945,50.800 325.172 C 50.800 325.400,51.424 326.228,52.187 327.014 C 53.349 328.210,54.389 330.423,54.398 331.719 C 54.399 331.895,54.875 332.447,55.457 332.947 C 56.038 333.447,56.713 334.471,56.957 335.223 C 57.228 336.060,57.827 336.795,58.500 337.117 C 59.128 337.418,59.600 337.969,59.600 338.401 C 59.600 338.818,60.223 339.634,60.984 340.215 C 61.746 340.796,62.475 341.607,62.605 342.017 C 62.736 342.428,63.472 342.991,64.241 343.269 C 65.023 343.552,65.854 344.222,66.125 344.788 C 66.391 345.344,67.147 345.980,67.805 346.200 C 69.617 346.806,70.000 347.158,70.000 348.216 C 70.000 348.946,70.271 349.246,71.100 349.432 C 74.778 350.261,75.111 350.420,75.590 351.575 C 76.038 352.657,76.272 352.763,78.737 353.001 C 82.240 353.338,82.400 353.406,82.400 354.564 C 82.400 355.866,82.547 355.930,86.241 356.234 C 90.633 356.595,91.662 357.399,90.115 359.261 C 89.742 359.710,90.880 359.790,96.934 359.741 C 105.862 359.669,107.692 359.843,107.506 360.744 C 107.432 361.105,107.647 361.619,107.985 361.887 C 108.523 362.314,108.500 362.382,107.800 362.437 C 107.360 362.472,107.810 362.645,108.800 362.822 C 111.811 363.359,293.508 363.273,293.841 362.733 C 294.015 362.452,293.946 362.386,293.662 362.562 C 293.408 362.719,293.200 362.657,293.200 362.424 C 293.200 362.191,293.364 362.000,293.565 362.000 C 293.969 362.000,293.932 361.247,293.492 360.543 C 293.053 359.841,295.351 359.683,303.910 359.827 C 309.045 359.913,311.536 359.820,311.369 359.551 C 311.232 359.328,310.853 359.248,310.528 359.372 C 310.049 359.556,309.990 359.352,310.219 358.300 C 310.612 356.485,310.925 356.369,315.101 356.492 C 317.359 356.558,318.814 356.444,318.834 356.200 C 318.852 355.980,318.912 355.395,318.966 354.900 C 319.021 354.405,318.871 353.982,318.633 353.960 C 317.428 353.849,320.504 353.274,322.487 353.240 C 324.492 353.205,324.748 353.287,324.557 353.900 C 324.354 354.554,324.369 354.554,324.794 353.892 C 325.045 353.502,325.398 353.275,325.579 353.387 C 325.761 353.499,326.003 353.233,326.117 352.795 C 326.232 352.357,326.175 352.092,325.990 352.206 C 325.806 352.320,325.542 352.230,325.404 352.007 C 325.266 351.783,325.343 351.600,325.576 351.600 C 325.809 351.600,326.000 351.350,326.000 351.043 C 326.000 350.468,327.608 349.824,329.489 349.646 C 329.757 349.621,330.128 349.015,330.312 348.300 C 330.581 347.255,330.877 346.973,331.823 346.865 C 333.339 346.690,333.923 346.187,334.076 344.921 C 334.169 344.153,334.547 343.788,335.600 343.450 C 336.698 343.097,337.028 342.760,337.128 341.886 C 337.228 341.015,337.595 340.635,338.804 340.152 C 339.969 339.686,340.415 339.244,340.608 338.363 C 340.749 337.719,341.016 337.286,341.200 337.400 C 341.745 337.737,342.800 336.420,342.800 335.404 C 342.800 333.914,343.212 333.214,344.471 332.563 C 345.594 331.982,345.635 331.867,345.421 329.878 L 345.196 327.800 347.098 326.367 C 348.144 325.579,348.961 324.742,348.914 324.508 C 348.866 324.274,349.451 323.421,350.214 322.613 C 351.325 321.434,351.605 320.812,351.623 319.472 C 351.636 318.552,351.714 317.163,351.796 316.385 C 352.023 314.252,350.477 314.245,349.490 316.374 " stroke="none" fill="#920dee" fill-rule="evenodd"></path><path id="path3" d="M134.800 45.618 C 131.390 45.769,125.990 46.135,122.800 46.431 C 117.004 46.970,108.458 47.133,102.800 46.813 C 98.005 46.541,92.146 48.227,89.829 50.545 C 88.459 51.914,86.056 52.801,83.001 53.063 C 80.090 53.313,72.769 56.103,73.392 56.725 C 73.834 57.167,71.558 60.018,68.257 63.154 C 67.189 64.169,65.006 66.289,63.406 67.864 C 60.500 70.727,59.125 71.666,57.152 72.139 C 55.741 72.476,54.185 74.623,53.862 76.677 C 53.717 77.599,53.391 78.859,53.138 79.477 C 52.629 80.717,52.646 80.657,52.057 83.203 C 51.430 85.915,50.602 87.664,49.217 89.208 C 47.672 90.930,46.035 93.614,45.768 94.862 C 45.658 95.378,45.322 97.265,45.021 99.056 C 44.458 102.414,44.061 103.482,42.974 104.569 C 42.500 105.043,42.475 105.203,42.871 105.212 C 43.211 105.220,43.155 105.367,42.715 105.624 C 41.966 106.060,41.806 109.018,42.441 110.700 C 42.627 111.195,42.639 111.600,42.467 111.600 C 42.199 111.600,42.008 115.510,42.065 119.800 C 42.074 120.460,42.071 121.180,42.059 121.400 C 42.046 121.620,41.937 125.068,41.815 129.062 C 41.693 133.056,41.514 137.286,41.416 138.462 C 41.318 139.638,41.139 150.410,41.019 162.400 C 40.899 174.390,40.697 186.810,40.570 190.000 C 40.361 195.244,40.171 206.992,40.008 224.600 C 39.963 229.493,39.850 230.765,39.528 230.000 L 39.106 229.000 38.540 230.200 C 38.026 231.290,37.992 230.980,38.173 226.800 C 38.301 223.854,38.246 222.597,38.019 223.306 C 37.281 225.617,37.098 238.360,37.735 243.093 C 38.190 246.479,38.234 247.957,37.910 249.093 C 37.674 249.922,37.463 254.245,37.440 258.699 C 37.418 263.154,37.265 266.799,37.100 266.799 C 36.666 266.800,36.730 273.509,37.166 273.779 C 37.367 273.903,37.625 273.779,37.739 273.502 C 37.853 273.226,37.838 273.630,37.705 274.400 C 37.497 275.616,37.545 275.735,38.069 275.303 C 38.402 275.030,38.792 274.925,38.937 275.070 C 39.082 275.215,39.200 275.123,39.200 274.867 C 39.200 274.610,39.020 274.400,38.800 274.400 C 38.580 274.400,38.400 274.231,38.400 274.025 C 38.400 273.819,38.743 273.676,39.161 273.707 C 39.664 273.745,39.876 274.008,39.784 274.482 C 39.708 274.877,39.771 275.200,39.923 275.200 C 40.075 275.200,40.215 275.605,40.232 276.100 C 40.337 279.014,40.969 283.560,41.525 285.400 C 41.931 286.742,42.087 285.846,42.631 279.013 C 42.987 274.535,43.931 270.650,43.994 273.400 C 44.007 273.962,44.108 274.049,44.335 273.692 C 45.074 272.528,46.575 273.401,46.931 275.202 C 47.119 276.150,47.689 277.573,48.199 278.363 C 48.710 279.153,49.251 280.402,49.404 281.138 L 49.680 282.476 52.740 282.226 C 58.333 281.768,66.814 281.777,67.117 282.241 C 67.435 282.730,70.400 283.302,70.401 282.875 C 70.401 282.724,71.931 282.600,73.801 282.600 C 75.670 282.600,77.200 282.704,77.200 282.831 C 77.200 282.958,77.738 282.982,78.396 282.886 C 79.054 282.789,79.493 282.551,79.372 282.355 C 79.252 282.160,79.748 281.999,80.476 281.998 C 85.953 281.989,90.693 276.827,89.570 272.097 C 89.143 270.299,89.170 269.582,89.754 267.160 C 90.790 262.869,90.087 259.913,87.029 255.707 C 86.188 254.550,86.082 253.946,86.028 249.990 C 85.995 247.557,85.775 245.079,85.539 244.484 C 84.862 242.772,84.772 236.521,85.371 232.800 C 86.478 225.923,86.817 222.096,86.413 221.033 C 86.197 220.465,86.088 220.000,86.171 220.000 C 86.254 220.000,86.063 219.145,85.747 218.100 C 85.432 217.055,85.078 215.300,84.962 214.200 C 84.846 213.100,84.687 211.813,84.609 211.341 C 83.869 206.852,83.906 206.134,84.957 204.469 C 86.291 202.356,87.187 196.959,87.227 190.800 C 87.278 182.874,88.308 182.874,88.480 190.800 C 88.531 193.110,88.668 186.180,88.786 175.400 L 89.000 155.800 90.500 152.109 C 91.325 150.078,92.000 148.225,92.000 147.989 C 92.000 147.754,92.360 146.816,92.800 145.906 C 93.240 144.995,93.600 144.039,93.600 143.782 C 93.600 142.053,98.879 137.301,102.040 136.186 C 104.033 135.483,215.856 135.252,218.234 135.946 C 218.912 136.144,220.262 136.816,221.234 137.440 C 222.205 138.063,223.630 138.918,224.400 139.340 C 226.689 140.592,230.832 143.661,231.333 144.476 C 231.590 144.892,232.526 145.661,233.414 146.183 C 234.301 146.705,235.847 148.003,236.849 149.066 C 237.851 150.130,239.374 151.389,240.235 151.865 C 242.448 153.088,243.494 155.121,243.794 158.780 C 244.267 164.543,245.504 167.447,249.142 171.330 L 250.200 172.460 250.634 170.930 C 251.092 169.316,254.035 168.467,255.361 169.567 C 255.709 169.856,256.008 169.833,256.353 169.490 C 256.744 169.102,256.791 169.148,256.577 169.711 C 256.110 170.938,260.827 167.832,263.853 164.919 C 265.364 163.466,267.770 161.511,269.200 160.576 C 270.630 159.641,272.495 157.958,273.344 156.837 C 274.193 155.715,275.633 154.213,276.544 153.499 C 278.846 151.693,279.978 150.292,281.600 147.242 C 282.370 145.794,283.404 144.411,283.897 144.169 C 284.391 143.927,285.111 143.455,285.497 143.121 C 286.376 142.361,288.566 141.569,290.400 141.349 C 291.170 141.257,292.778 141.005,293.973 140.791 C 302.856 139.194,306.546 140.889,308.367 147.402 C 308.982 149.601,310.069 152.840,310.782 154.600 L 312.079 157.800 312.058 165.594 C 312.046 170.152,312.181 173.155,312.384 172.826 C 312.934 171.936,313.354 175.760,312.967 178.138 C 312.523 180.869,312.613 185.583,313.170 188.800 C 313.418 190.230,313.780 194.010,313.974 197.200 C 314.231 201.415,314.538 203.492,315.099 204.800 C 315.852 206.560,316.331 209.510,317.239 218.000 C 317.521 220.641,317.639 228.286,317.557 238.600 C 317.437 253.589,317.490 255.224,318.165 257.600 C 318.805 259.850,318.837 260.442,318.401 262.000 C 317.689 264.543,317.467 269.852,318.010 271.350 C 318.259 272.037,318.728 273.588,319.051 274.795 C 319.815 277.647,320.813 278.656,323.454 279.247 C 324.634 279.511,325.600 279.902,325.600 280.116 C 325.600 280.773,328.683 280.138,329.981 279.213 C 331.192 278.351,331.207 278.351,332.300 279.116 C 332.905 279.540,334.390 280.211,335.600 280.607 C 337.106 281.099,338.261 281.829,339.261 282.921 C 340.181 283.924,340.922 284.414,341.261 284.242 C 341.558 284.092,342.247 283.713,342.794 283.400 C 343.804 282.823,345.582 282.990,346.051 283.706 C 346.642 284.607,350.389 283.582,351.029 282.344 C 351.364 281.696,352.084 280.963,352.628 280.715 C 353.270 280.422,354.123 279.226,355.060 277.304 C 356.891 273.548,357.194 273.863,357.516 279.850 C 357.891 286.824,358.288 282.911,358.363 271.502 C 358.396 266.499,358.501 262.179,358.595 261.902 C 358.961 260.830,359.153 207.290,358.800 204.800 C 358.597 203.370,358.337 190.500,358.223 176.200 C 357.933 140.008,357.706 125.233,357.413 123.600 C 357.275 122.830,357.097 121.390,357.016 120.400 C 356.936 119.410,356.687 117.070,356.463 115.200 C 356.239 113.330,355.947 109.190,355.813 106.000 C 355.541 99.520,355.510 99.210,354.803 95.708 C 354.526 94.337,354.142 93.312,353.949 93.431 C 353.757 93.550,353.600 93.439,353.600 93.185 C 353.600 92.931,353.203 92.165,352.717 91.483 C 351.357 89.574,350.487 87.708,349.214 83.976 C 348.572 82.093,347.316 79.285,346.424 77.736 C 345.531 76.187,344.800 74.795,344.800 74.643 C 344.800 73.403,341.279 69.845,338.594 68.371 C 336.949 67.468,335.496 66.556,335.365 66.344 C 335.234 66.131,334.172 65.535,333.005 65.019 C 330.271 63.810,326.685 59.605,326.976 57.949 C 327.304 56.082,326.623 55.692,320.436 54.202 C 319.026 53.862,316.506 52.837,314.836 51.924 C 313.166 51.011,311.300 50.009,310.688 49.697 C 309.881 49.285,308.130 49.141,304.288 49.170 C 298.730 49.212,296.481 48.861,290.400 46.999 C 285.858 45.609,271.634 44.905,261.334 45.561 C 252.897 46.097,157.410 46.131,153.400 45.598 C 150.330 45.190,144.344 45.197,134.800 45.618 M246.442 237.094 C 245.630 242.100,245.532 249.002,246.283 248.251 C 247.273 247.260,248.094 235.797,247.267 234.494 C 247.073 234.189,246.746 235.220,246.442 237.094 M38.292 241.091 C 38.205 241.921,38.133 241.340,38.131 239.800 C 38.129 238.260,38.200 237.581,38.289 238.291 C 38.377 239.001,38.379 240.261,38.292 241.091 M39.267 243.293 C 38.911 243.649,38.806 243.432,38.827 242.380 C 38.852 241.084,38.881 241.056,39.294 241.913 C 39.619 242.588,39.612 242.948,39.267 243.293 M39.476 248.300 C 39.375 248.685,39.293 248.370,39.293 247.600 C 39.293 246.830,39.375 246.515,39.476 246.900 C 39.576 247.285,39.576 247.915,39.476 248.300 M59.100 281.491 C 58.275 281.578,56.925 281.578,56.100 281.491 C 55.275 281.405,55.950 281.334,57.600 281.334 C 59.250 281.334,59.925 281.405,59.100 281.491 M338.914 345.442 C 338.427 345.969,338.189 346.400,338.386 346.400 C 338.856 346.400,340.000 345.245,340.000 344.771 C 340.000 344.288,339.958 344.313,338.914 345.442 " stroke="none" fill="#fb4ffb" fill-rule="evenodd"></path><path id="path4" d="M250.983 169.627 C 250.589 170.265,249.814 178.347,250.118 178.651 C 250.262 178.796,250.628 178.709,250.931 178.458 C 251.233 178.206,252.318 177.886,253.340 177.746 L 255.200 177.491 255.200 175.572 C 255.200 174.516,255.399 173.145,255.643 172.526 C 256.616 170.052,256.801 169.101,256.217 169.586 C 255.842 169.897,255.590 169.908,255.412 169.619 C 255.072 169.069,251.324 169.075,250.983 169.627 M312.275 173.200 C 312.147 173.750,311.935 179.690,311.803 186.400 C 311.408 206.549,311.211 213.686,310.989 216.000 C 310.873 217.210,310.502 222.430,310.165 227.600 C 309.828 232.770,309.393 239.340,309.198 242.200 C 308.873 246.980,308.240 250.128,307.247 251.903 C 306.973 252.392,307.019 252.779,307.402 253.202 C 308.267 254.158,308.520 257.494,307.804 258.515 C 307.472 258.990,307.200 259.683,307.200 260.056 C 307.200 269.330,291.590 268.667,281.077 258.948 C 279.800 257.766,278.609 256.800,278.431 256.800 C 278.053 256.800,272.692 250.819,269.800 247.171 C 268.700 245.783,266.545 243.467,265.012 242.024 C 263.479 240.581,261.328 238.545,260.233 237.500 C 259.138 236.455,258.139 235.600,258.012 235.600 C 257.885 235.600,257.432 234.925,257.004 234.100 C 256.576 233.275,255.360 231.580,254.302 230.334 C 251.610 227.161,248.571 220.091,247.452 214.400 C 247.344 213.850,247.329 220.112,247.418 228.315 C 247.619 246.694,247.385 248.153,243.385 253.393 C 241.962 255.257,241.966 255.937,243.400 256.007 C 246.125 256.140,246.155 259.535,243.462 263.076 C 237.990 270.271,229.143 271.567,185.200 271.609 C 131.581 271.661,124.495 271.279,117.969 267.984 C 116.558 267.272,114.424 266.352,113.226 265.940 C 108.032 264.153,104.604 261.634,102.332 257.934 C 101.379 256.383,100.111 254.369,99.514 253.457 C 98.916 252.546,98.059 251.170,97.609 250.400 C 96.307 248.171,95.880 247.472,95.089 246.279 C 93.224 243.468,93.632 239.137,95.630 240.536 C 97.221 241.650,97.189 241.317,95.407 238.190 C 94.318 236.280,93.298 233.686,92.615 231.090 C 92.023 228.841,91.165 225.920,90.708 224.600 C 90.034 222.654,89.817 220.686,89.561 214.200 C 89.387 209.800,89.149 204.670,89.031 202.800 C 88.912 200.930,88.713 196.700,88.587 193.400 C 88.204 183.324,87.286 181.571,87.227 190.800 C 87.187 196.959,86.291 202.356,84.957 204.469 C 83.906 206.134,83.869 206.852,84.609 211.341 C 84.687 211.813,84.846 213.100,84.962 214.200 C 85.078 215.300,85.432 217.055,85.747 218.100 C 86.063 219.145,86.254 220.000,86.171 220.000 C 86.088 220.000,86.197 220.465,86.413 221.033 C 86.817 222.096,86.478 225.923,85.371 232.800 C 84.772 236.521,84.862 242.772,85.539 244.484 C 85.775 245.079,85.995 247.557,86.028 249.990 C 86.082 253.946,86.188 254.550,87.029 255.707 C 90.087 259.913,90.790 262.869,89.754 267.160 C 89.170 269.582,89.143 270.299,89.570 272.097 C 90.693 276.827,85.953 281.989,80.476 281.998 C 79.748 281.999,79.252 282.160,79.372 282.355 C 79.493 282.551,79.054 282.789,78.396 282.886 C 77.738 282.982,77.200 282.958,77.200 282.831 C 77.200 282.704,75.670 282.600,73.801 282.600 C 71.931 282.600,70.401 282.724,70.401 282.875 C 70.400 283.302,67.435 282.730,67.117 282.241 C 66.814 281.777,58.333 281.768,52.740 282.226 L 49.680 282.476 49.404 281.138 C 49.251 280.402,48.710 279.153,48.199 278.363 C 47.689 277.573,47.119 276.150,46.931 275.202 C 46.575 273.401,45.074 272.528,44.335 273.692 C 44.108 274.049,44.007 273.962,43.994 273.400 C 43.979 272.724,43.919 272.697,43.609 273.227 C 43.069 274.150,42.878 275.511,42.439 281.550 C 41.151 299.261,41.203 306.400,42.618 306.400 C 43.596 306.400,44.145 308.107,44.404 311.961 C 44.639 315.437,44.741 315.789,45.754 316.596 C 46.438 317.141,47.052 318.208,47.389 319.435 C 47.855 321.131,47.938 321.236,47.995 320.200 C 48.140 317.574,48.704 315.600,49.308 315.601 C 49.578 315.601,50.954 317.062,52.365 318.848 C 55.334 322.605,58.374 324.800,60.607 324.800 C 63.833 324.800,66.713 326.795,67.971 329.900 C 68.521 331.258,69.786 331.654,70.690 330.750 C 70.962 330.478,71.689 330.403,72.530 330.560 C 73.980 330.832,75.111 331.761,74.473 332.155 C 74.062 332.409,74.324 334.306,74.812 334.607 C 75.990 335.335,76.969 333.129,75.929 332.089 C 75.396 331.556,76.517 330.000,77.435 330.000 C 77.716 330.000,78.058 329.648,78.194 329.217 C 78.443 328.435,82.558 325.600,83.445 325.600 C 83.703 325.600,84.018 325.330,84.145 325.000 C 84.271 324.670,84.751 324.400,85.211 324.400 C 85.671 324.400,85.936 324.580,85.800 324.800 C 85.652 325.040,86.163 325.201,87.076 325.201 C 87.914 325.202,89.144 325.535,89.810 325.941 C 90.475 326.346,91.735 326.906,92.610 327.184 C 93.484 327.462,94.560 327.914,95.000 328.188 C 95.440 328.463,95.916 328.668,96.058 328.644 C 96.200 328.620,96.688 328.936,97.142 329.348 C 98.089 330.205,100.906 330.011,102.246 328.996 C 102.661 328.682,103.327 328.420,103.726 328.413 C 104.126 328.406,104.846 328.177,105.326 327.905 C 105.911 327.574,108.321 327.397,112.600 327.370 C 116.120 327.348,119.810 327.181,120.800 327.000 C 122.388 326.709,122.541 326.742,122.096 327.281 C 121.659 327.810,121.806 327.891,123.200 327.891 C 124.594 327.891,124.741 327.810,124.304 327.281 C 123.860 326.743,124.013 326.708,125.600 326.985 C 128.092 327.419,150.379 327.557,150.638 327.139 C 150.897 326.720,152.957 326.690,153.366 327.099 C 154.057 327.791,302.792 327.662,305.962 326.967 C 309.471 326.198,311.655 326.442,313.438 327.802 C 317.210 330.679,324.719 330.985,324.817 328.264 C 324.854 327.216,327.567 324.763,329.365 324.150 L 331.235 323.513 332.674 324.995 C 334.365 326.736,337.516 328.244,338.146 327.614 C 338.374 327.386,338.888 327.200,339.289 327.200 C 341.020 327.200,344.766 324.264,345.877 322.036 C 346.470 320.846,347.366 319.430,347.868 318.889 C 348.369 318.348,349.099 317.216,349.490 316.374 C 350.477 314.245,352.023 314.252,351.796 316.385 C 351.714 317.163,351.636 318.552,351.623 319.472 C 351.605 320.812,351.325 321.434,350.214 322.613 C 349.451 323.421,348.866 324.274,348.914 324.508 C 348.961 324.742,348.144 325.579,347.098 326.367 L 345.196 327.800 345.421 329.878 C 345.635 331.867,345.594 331.982,344.471 332.563 C 343.208 333.216,342.772 333.960,342.847 335.333 C 342.882 335.965,342.964 335.876,343.150 335.005 C 343.313 334.246,343.697 333.756,344.203 333.662 C 345.457 333.429,345.878 332.907,346.363 330.981 C 346.629 329.924,347.388 328.579,348.208 327.710 C 348.973 326.898,349.600 325.901,349.600 325.494 C 349.600 325.088,350.120 324.270,350.756 323.677 C 351.638 322.856,352.071 321.886,352.577 319.600 C 353.009 317.650,353.520 316.385,354.037 315.986 C 354.635 315.524,354.970 314.463,355.381 311.726 C 356.013 307.518,356.448 306.506,357.699 306.328 C 358.573 306.204,358.597 306.082,358.493 302.200 C 358.117 288.199,357.340 275.180,356.851 274.691 C 356.654 274.494,355.879 275.624,355.060 277.304 C 354.123 279.226,353.270 280.422,352.628 280.715 C 352.084 280.963,351.364 281.696,351.029 282.344 C 350.389 283.582,346.642 284.607,346.051 283.706 C 345.582 282.990,343.804 282.823,342.794 283.400 C 342.247 283.713,341.558 284.092,341.261 284.242 C 340.922 284.414,340.181 283.924,339.261 282.921 C 338.261 281.829,337.106 281.099,335.600 280.607 C 334.390 280.211,332.905 279.540,332.300 279.116 C 331.207 278.351,331.192 278.351,329.981 279.213 C 328.683 280.138,325.600 280.773,325.600 280.116 C 325.600 279.902,324.634 279.511,323.454 279.247 C 320.813 278.656,319.815 277.647,319.051 274.795 C 318.728 273.588,318.259 272.037,318.010 271.350 C 317.467 269.852,317.689 264.543,318.401 262.000 C 318.837 260.442,318.805 259.850,318.165 257.600 C 317.490 255.224,317.437 253.589,317.557 238.600 C 317.639 228.286,317.521 220.641,317.239 218.000 C 316.331 209.510,315.852 206.560,315.099 204.800 C 314.538 203.492,314.231 201.415,313.974 197.200 C 313.780 194.010,313.418 190.230,313.170 188.800 C 312.630 185.678,312.550 181.150,312.974 177.600 C 313.309 174.793,312.739 171.204,312.275 173.200 M262.606 230.600 C 264.291 233.467,268.128 237.173,268.537 236.329 C 268.572 236.258,267.093 234.670,265.251 232.800 C 263.408 230.930,262.218 229.940,262.606 230.600 M56.100 281.491 C 56.925 281.578,58.275 281.578,59.100 281.491 C 59.925 281.405,59.250 281.334,57.600 281.334 C 55.950 281.334,55.275 281.405,56.100 281.491 M50.214 325.378 C 50.912 327.701,51.554 328.877,52.481 329.535 C 52.895 329.829,53.509 330.756,53.845 331.595 C 54.220 332.533,54.791 333.205,55.328 333.340 L 56.200 333.559 55.300 332.815 C 54.805 332.406,54.399 331.921,54.398 331.736 C 54.389 330.489,53.375 328.190,52.431 327.280 C 51.815 326.686,51.012 325.615,50.645 324.900 C 49.728 323.109,49.580 323.273,50.214 325.378 " stroke="none" fill="#c004fa" fill-rule="evenodd"></path></g></svg>
